<?xml version="1.0" standalone="no"?><!DOCTYPE svg PUBLIC "-//W3C//DTD SVG 1.1//EN" "http://www.w3.org/Graphics/SVG/1.1/DTD/svg11.dtd" ><svg xmlns="http://www.w3.org/2000/svg"><metadata></metadata><defs><font id="ChristopherSimpkins: Hack: 2015" horiz-adv-x="1233"><font-face font-family="Hack" font-weight="400" font-stretch="normal" units-per-em="2048" panose-1="2 11 6 9 3 2 2 2 2 4" ascent="1901" descent="-483" x-height="4" bbox="-20 -512 1253 1921" underline-thickness="90" underline-position="-220" unicode-range="U+0020-27e9" /><missing-glyph horiz-adv-x="1233" d="M1128 1444 l0 -1806 l-1024 0 l0 1806 l1024 0 ZM1014 1329 l-795 0 l0 -1577 l795 0 l0 1577 Z" /><glyph glyph-name="B" unicode="B" d="M166 1493 l442 0 q228 0 353 -99 q124 -99 124 -281 q0 -70 -17 -123.5 q-17 -53.5 -48 -91.5 q-32 -38 -81 -63.5 q-49 -25.5 -116 -35.5 q148 -23 231 -125 q41 -51 62 -117 q21 -66 21 -148 q0 -202 -133 -305 q-134 -104 -396 -104 l-442 0 l0 1493 ZM604 877 q76 0 127.5 14 q51.5 14 84.5 43 q65 56 65 177 q0 60 -16 100.5 q-16 40.5 -48 65.5 q-65 50 -213 50 l-235 0 l0 -450 l235 0 ZM608 166 q175 0 251 62 q75 61 75 202 q0 146 -79 215 q-80 68 -247 68 l-239 0 l0 -547 l239 0 Z" /><glyph glyph-name="C" unicode="C" d="M742 -29 q-140 0 -252.5 50 q-112.5 50 -192.5 153 q-79 102 -118.5 245.5 q-39.5 143.5 -39.5 324.5 q0 181 39.5 325 q39.5 144 119.5 247 q80 103 192 153.5 q112 50.5 252 50.5 q48 0 92.5 -5.5 q44.5 -5.5 80.5 -14.5 q36 -9 79 -25.5 q43 -16.5 79 -36.5 l0 -207 q-73 61 -159 93 q-43 16 -85.5 24 q-42.5 8 -87.5 8 q-97 0 -170.5 -38 q-73.5 -38 -122.5 -114 q-98 -152 -98 -459 q0 -306 98 -458 q98 -152 295 -152 q45 0 87.5 8 q42.5 8 85.5 24 q83 31 157 93 l0 -207 q-78 -41 -158 -62 q-39 -10 -83.5 -15 q-44.5 -5 -89.5 -5 Z" /><glyph glyph-name="D" unicode="D" d="M137 1493 l303 0 q342 0 504 -182 q162 -182 162 -566 q0 -382 -162 -563 q-162 -182 -504 -182 l-303 0 l0 1493 ZM436 166 q255 0 356 126 q51 63 76 175 q25 112 25 280 q0 165 -24.5 278.5 q-24.5 113.5 -75.5 176.5 q-51 64 -141.5 94.5 q-90.5 30.5 -215.5 30.5 l-96 0 l0 -1161 l96 0 Z" /><glyph glyph-name="E" unicode="E" d="M197 1493 l886 0 l0 -170 l-684 0 l0 -442 l654 0 l0 -170 l-654 0 l0 -541 l703 0 l0 -170 l-905 0 l0 1493 Z" /><glyph glyph-name="F" unicode="F" d="M233 1493 l879 0 l0 -170 l-676 0 l0 -460 l613 0 l0 -170 l-613 0 l0 -693 l-203 0 l0 1493 Z" /><glyph glyph-name="G" unicode="G" d="M700 -29 q-143 0 -253.5 52 q-110.5 52 -187.5 152 q-78 102 -117.5 245 q-39.5 143 -39.5 324 q0 186 41 329.5 q41 143.5 119 243.5 q78 100 189.5 151.5 q111.5 51.5 251.5 51.5 q100 0 184 -26 q44 -14 85.5 -34.5 q41.5 -20.5 80.5 -46.5 l0 -207 q-43 41 -85.5 69 q-42.5 28 -80.5 45 q-44 19 -90 27.5 q-46 8.5 -91 8.5 q-97 0 -170 -37 q-73 -37 -124 -115 q-50 -77 -74.5 -190.5 q-24.5 -113.5 -24.5 -270.5 q0 -158 24 -270.5 q24 -112.5 72 -187.5 q94 -150 294 -150 q32 0 61.5 4 q29.5 4 55.5 12 q24 8 47 19.5 q23 11.5 44 28.5 l0 401 l-217 0 l0 166 l410 0 l0 -643 q-81 -75 -182 -113 q-102 -39 -222 -39 Z" /><glyph glyph-name="H" unicode="H" d="M137 1493 l203 0 l0 -612 l553 0 l0 612 l203 0 l0 -1493 l-203 0 l0 711 l-553 0 l0 -711 l-203 0 l0 1493 Z" /><glyph glyph-name="I" unicode="I" d="M201 170 l313 0 l0 1153 l-313 0 l0 170 l829 0 l0 -170 l-313 0 l0 -1153 l313 0 l0 -170 l-829 0 l0 170 Z" /><glyph glyph-name="J" unicode="J" d="M502 -29 q-103 0 -195 22 q-97 23 -198 68 l0 236 q91 -81 188 -121 q99 -41 202 -41 q67 0 118.5 18 q51.5 18 80.5 57 q56 74 56 277 l0 836 l-381 0 l0 170 l583 0 l0 -1006 q0 -144 -25.5 -240.5 q-25.5 -96.5 -80.5 -157.5 q-55 -61 -140.5 -89.5 q-85.5 -28.5 -207.5 -28.5 Z" /><glyph glyph-name="K" unicode="K" d="M137 1493 l203 0 l0 -664 l631 664 l237 0 l-581 -610 l598 -883 l-244 0 l-487 748 l-154 -164 l0 -584 l-203 0 l0 1493 Z" /><glyph glyph-name="L" unicode="L" d="M215 1493 l203 0 l0 -1323 l721 0 l0 -170 l-924 0 l0 1493 Z" /><glyph glyph-name="M" unicode="M" d="M86 1493 l270 0 l258 -760 l260 760 l271 0 l0 -1493 l-187 0 l0 1319 l-266 -787 l-153 0 l-267 787 l0 -1319 l-186 0 l0 1493 Z" /><glyph glyph-name="N" unicode="N" d="M139 1493 l256 0 l504 -1229 l0 1229 l195 0 l0 -1493 l-256 0 l-504 1229 l0 -1229 l-195 0 l0 1493 Z" /><glyph glyph-name="O" unicode="O" d="M616 -29 q-253 0 -376 191 q-123 190 -123 583 q0 392 124 583 q62 96 154.5 144 q92.5 48 220.5 48 q123 0 218 -46 q95 -46 159 -146 q123 -192 123 -583 q0 -390 -123 -582 q-64 -100 -159 -146 q-95 -46 -218 -46 ZM616 135 q154 0 222 141 q67 138 67 469 q0 330 -67 470 q-68 141 -222 141 q-153 0 -220 -141 q-68 -142 -68 -470 q0 -327 68 -469 q67 -141 220 -141 Z" /><glyph glyph-name="P" unicode="P" d="M172 1493 l436 0 q249 0 379 -113 q67 -59 98 -143.5 q31 -84.5 31 -190.5 q0 -220 -128 -333 q-63 -56 -158 -84.5 q-95 -28.5 -222 -28.5 l-234 0 l0 -600 l-202 0 l0 1493 ZM608 766 q75 0 129 20 q54 20 90 54 q78 73 78 207 q0 133 -78 207 q-77 73 -219 73 l-234 0 l0 -561 l234 0 Z" /><glyph glyph-name="Q" unicode="Q" d="M655 -27 q-4 0 -8.5 0 q-4.5 0 -11.5 -1 q-7 -1 -11.5 -1 q-4.5 0 -6.5 0 q-125 0 -218.5 46 q-93.5 46 -157.5 146 q-64 100 -94 245 q-30 145 -30 337 q0 392 124 583 q62 96 154.5 144 q92.5 48 220.5 48 q123 0 218 -46 q95 -46 159 -146 q123 -192 123 -583 q0 -293 -68 -473 q-33 -88 -85 -152 q-52 -64 -123 -100 l285 -290 l-236 0 l-234 243 ZM616 135 q154 0 222 141 q67 138 67 469 q0 330 -67 470 q-68 141 -222 141 q-153 0 -220 -141 q-68 -142 -68 -470 q0 -327 68 -469 q67 -141 220 -141 Z" /><glyph glyph-name="R" unicode="R" d="M143 1493 l416 0 q246 0 377 -111 q66 -56 98.5 -136 q32.5 -80 32.5 -181 q0 -79 -20 -138.5 q-20 -59.5 -60 -106.5 q-80 -94 -227 -115 q40 -10 74 -29.5 q34 -19.5 59 -45.5 q28 -29 60.5 -81.5 q32.5 -52.5 76.5 -140.5 l203 -408 l-217 0 l-178 377 q-39 83 -73.5 134 q-34.5 51 -64.5 74 q-31 24 -72.5 35 q-41.5 11 -88.5 11 l-193 0 l0 -631 l-203 0 l0 1493 ZM567 797 q145 0 216 65 q35 32 53 82 q18 50 18 115 q0 65 -18.5 115 q-18.5 50 -56.5 85 q-36 32 -90.5 50 q-54.5 18 -129.5 18 l-213 0 l0 -530 l221 0 Z" /><glyph glyph-name="S" unicode="S" d="M584 -29 q-53 0 -107 5.5 q-54 5.5 -106 16.5 q-52 11 -107 29 q-55 18 -106 39 l0 215 q58 -37 112 -63.5 q54 -26.5 106 -43.5 q102 -34 205 -34 q75 0 135.5 17 q60.5 17 103.5 51 q44 35 64.5 84 q20.5 49 20.5 113 q0 56 -14.5 96 q-14.5 40 -43.5 69 q-32 33 -80.5 54 q-48.5 21 -123.5 38 l-108 25 q-101 23 -176.5 57 q-75.5 34 -125.5 85 q-94 94 -94 255 q0 102 35 183 q35 81 100 139 q64 57 153.5 88 q89.5 31 203.5 31 q43 0 88 -4.5 q45 -4.5 93 -14.5 q93 -19 200 -59 l0 -205 q-48 31 -93.5 52.5 q-45.5 21.5 -90.5 36.5 q-93 30 -186 30 q-68 0 -127 -16 q-59 -16 -101 -50 q-42 -34 -62 -81 q-20 -47 -20 -104 q0 -51 14.5 -85.5 q14.5 -34.5 40.5 -59.5 q31 -29 79.5 -50 q48.5 -21 123.5 -38 l106 -24 q106 -24 181 -62.5 q75 -38.5 124 -91.5 q97 -104 97 -284 q0 -114 -35 -194.5 q-35 -80.5 -96 -132.5 q-66 -56 -162.5 -84 q-96.5 -28 -220.5 -28 Z" /><glyph glyph-name="T" unicode="T" d="M516 1323 l-469 0 l0 170 l1139 0 l0 -170 l-467 0 l0 -1323 l-203 0 l0 1323 Z" /><glyph glyph-name="U" unicode="U" d="M616 -29 q-54 0 -100.5 7.5 q-46.5 7.5 -88.5 21.5 q-39 14 -80.5 36.5 q-41.5 22.5 -73.5 51.5 q-31 28 -55 66 q-24 38 -41 95 q-8 25 -13.5 56 q-5.5 31 -9 70 q-3.5 39 -5.5 87.5 q-2 48.5 -2 110.5 l0 920 l203 0 l0 -1012 q0 -109 6 -155 q6 -47 21 -72 q32 -59 93 -89 q60 -30 146 -30 q87 0 147 30 q62 31 93 89 q8 15 13 31 q5 16 8 40 q6 46 6 154 l0 1014 l202 0 l0 -920 q0 -66 -2 -116.5 q-2 -50.5 -5.5 -89 q-3.5 -38.5 -9 -67.5 q-5.5 -29 -11.5 -51 q-14 -50 -39 -90 q-25 -40 -59 -71 q-33 -30 -73.5 -52 q-40.5 -22 -79.5 -36 q-37 -13 -84 -21 q-47 -8 -106 -8 Z" /><glyph glyph-name="V" unicode="V" d="M57 1493 l209 0 l350 -1323 l351 1323 l209 0 l-437 -1493 l-245 0 l-437 1493 Z" /><glyph glyph-name="W" unicode="W" d="M0 1493 l197 0 l143 -1212 l170 802 l211 0 l172 -804 l143 1214 l197 0 l-223 -1493 l-191 0 l-203 887 l-202 -887 l-191 0 l-223 1493 Z" /><glyph glyph-name="X" unicode="X" d="M518 791 l-432 702 l217 0 l328 -563 l334 563 l217 0 l-447 -702 l479 -791 l-217 0 l-366 643 l-395 -643 l-218 0 l500 791 Z" /><glyph glyph-name="Y" unicode="Y" d="M514 670 l-477 823 l215 0 l364 -659 l363 659 l217 0 l-479 -823 l0 -670 l-203 0 l0 670 Z" /><glyph glyph-name="Z" unicode="Z" d="M110 154 l759 1169 l-737 0 l0 170 l969 0 l0 -154 l-780 -1169 l802 0 l0 -170 l-1013 0 l0 154 Z" /><glyph glyph-name="a" unicode="a" d="M513 -29 q-174 0 -275 97 q-48 46 -75 108.5 q-27 62.5 -27 150.5 q0 185 126 283 q124 97 368 97 l247 0 l0 29 q0 64 -17 114 q-17 50 -51 81 q-33 30 -87 45 q-54 15 -126 15 q-95 0 -191 -27 q-97 -27 -187 -79 l0 184 q42 16 93 32 q51 16 103 27 q91 19 183 19 q71 0 129 -10.5 q58 -10.5 108 -31.5 q46 -20 87.5 -50.5 q41.5 -30.5 70.5 -70.5 q21 -29 34 -61 q13 -32 20 -63 q16 -73 16 -221 l0 -229 q2 -58 3 -102 q1 -44 6 -82 q5 -42 11.5 -79 q6.5 -37 11.5 -56 q7 -31 16 -58.5 q9 -27.5 11 -32.5 l-185 0 q-5 12 -12.5 35.5 q-7.5 23.5 -14.5 51.5 q-5 22 -9.5 44.5 q-4.5 22.5 -6.5 38.5 q-29 -50 -74.5 -89 q-45.5 -39 -89.5 -62 q-48 -25 -101.5 -36.5 q-53.5 -11.5 -114.5 -11.5 ZM551 125 q151 0 238 106 q88 108 88 291 l0 41 l-233 0 q-160 0 -242 -56 q-43 -29 -62.5 -71.5 q-19.5 -42.5 -19.5 -98.5 q0 -52 16 -90.5 q16 -38.5 45 -65.5 q29 -26 70.5 -41 q41.5 -15 99.5 -15 Z" /><glyph glyph-name="ae" unicode="æ" d="M358 -29 q-154 0 -235 86 q-43 45 -62.5 107.5 q-19.5 62.5 -19.5 139.5 q0 85 23.5 151 q23.5 66 76.5 113 q101 89 291 89 l117 0 l0 88 q0 120 -49 184 q-49 64 -143 64 q-29 0 -61.5 -5.5 q-32.5 -5.5 -61.5 -15.5 q-30 -10 -63.5 -25.5 q-33.5 -15.5 -64.5 -35.5 l0 168 q38 17 74 30.5 q36 13.5 69 21.5 q64 16 127 16 q91 0 152 -31 q61 -32 99 -96 q33 61 99 94 q66 33 156 33 q85 0 147.5 -29 q62.5 -29 98.5 -89 q72 -119 72 -425 l0 -90 l-491 0 q-1 -8 -1 -16 q0 -8 0 -16 q0 -3 -0.5 -9.5 q-0.5 -6.5 -0.5 -29.5 q0 -98 13.5 -155.5 q13.5 -57.5 37.5 -91.5 q27 -38 68 -54.5 q41 -16.5 97 -16.5 q75 0 141 26 q65 26 114 76 l0 -172 q-29 -21 -60.5 -37 q-31.5 -16 -60.5 -26 q-29 -10 -65 -15.5 q-36 -5.5 -75 -5.5 q-51 0 -97.5 10.5 q-46.5 10.5 -83.5 30.5 q-75 41 -107 119 q-39 -80 -105 -120 q-34 -20 -74.5 -30 q-40.5 -10 -91.5 -10 ZM1036 657 l0 52 q0 78 -10 132 q-10 54 -28 86 q-17 30 -48 48 q-31 18 -78 18 q-87 0 -125 -68 q-38 -68 -38 -225 l0 -43 l327 0 ZM375 125 q94 0 131 67 q17 32 27 90 q10 58 10 160 l0 72 l-49 0 q-169 0 -229 -45 q-30 -23 -45 -62.5 q-15 -39.5 -15 -93.5 q0 -91 45 -139 q45 -49 125 -49 Z" /><glyph glyph-name="b" unicode="b" d="M676 -29 q-51 0 -93 10.5 q-42 10.5 -83 33.5 q-77 44 -123 126 l-18 -141 l-166 0 l0 1556 l184 0 l0 -579 q43 82 122 126 q77 44 181 44 q96 0 176.5 -38 q80.5 -38 139.5 -116 q58 -78 87 -187 q29 -109 29 -245 q0 -274 -116 -432 q-57 -78 -137 -118 q-80 -40 -183 -40 ZM650 127 q133 0 200 109 q68 110 68 323 q0 213 -68 323 q-67 109 -201 109 q-134 0 -203 -109 q-69 -110 -69 -323 q0 -213 69 -322 q69 -110 204 -110 Z" /><glyph glyph-name="c" unicode="c" d="M712 -29 q-125 0 -227.5 39.5 q-102.5 39.5 -174.5 116.5 q-73 78 -109.5 186.5 q-36.5 108.5 -36.5 245.5 q0 143 38.5 251 q38.5 108 108.5 182 q74 78 175.5 116.5 q101.5 38.5 226.5 38.5 q46 0 85 -5 q39 -5 77 -16 q76 -21 155 -65 l0 -193 q-37 32 -73 56 q-36 24 -73 38 q-75 29 -166 29 q-174 0 -267 -112 q-93 -113 -93 -319 q0 -96 21.5 -178 q21.5 -82 71.5 -142 q94 -113 270 -113 q50 0 91.5 8 q41.5 8 76.5 22 q45 17 77.5 39.5 q32.5 22.5 63.5 51.5 l0 -191 q-34 -20 -74 -37 q-40 -17 -78 -28 q-35 -10 -76.5 -15.5 q-41.5 -5.5 -89.5 -5.5 Z" /><glyph glyph-name="d" unicode="d" d="M559 -29 q-106 0 -186 42 q-80 42 -134 116 q-58 79 -87 188.5 q-29 109.5 -29 244.5 q0 133 28.5 242.5 q28.5 109.5 87.5 187.5 q59 78 141 116.5 q82 38.5 179 38.5 q102 0 178 -43 q77 -44 121 -127 l0 579 l184 0 l0 -1556 l-166 0 l-18 141 q-23 -40 -52 -71.5 q-29 -31.5 -70 -54.5 q-76 -44 -177 -44 ZM585 127 q135 0 204 110 q69 109 69 322 q0 213 -69 323 q-32 51 -82 80 q-50 29 -121 29 q-134 0 -201 -109 q-68 -110 -68 -323 q0 -213 68 -323 q35 -57 86 -83 q51 -26 114 -26 Z" /><glyph glyph-name="e" unicode="e" d="M677 -29 q-129 0 -231.5 39.5 q-102.5 39.5 -174.5 116.5 q-72 77 -109.5 185.5 q-37.5 108.5 -37.5 245.5 q0 141 38 247.5 q38 106.5 105 181.5 q73 81 171 120.5 q98 39.5 211 39.5 q112 0 196.5 -37 q84.5 -37 144.5 -107 q60 -70 91.5 -169.5 q31.5 -99.5 31.5 -227.5 l0 -90 l-797 0 l0 -6 q0 -183 96 -283 q46 -48 111.5 -74 q65.5 -26 156.5 -26 q91 0 185 28 q97 29 205 85 l0 -183 q-53 -22 -103 -38 q-50 -16 -99 -27 q-48 -11 -96 -16 q-48 -5 -95 -5 ZM929 660 q-2 86 -22.5 147.5 q-20.5 61.5 -53.5 99.5 q-36 42 -89 63 q-53 21 -119 21 q-135 0 -220 -88 q-86 -89 -102 -244 l606 1 Z" /><glyph glyph-name="f" unicode="f" d="M466 977 l-299 0 l0 143 l299 0 l0 78 q0 185 85 271 q84 87 263 87 l221 0 l0 -153 l-209 0 q-54 0 -86.5 -10.5 q-32.5 -10.5 -50.5 -29.5 q-39 -41 -39 -144 l0 -99 l385 0 l0 -143 l-385 0 l0 -977 l-184 0 l0 977 Z" /><glyph glyph-name="g" unicode="g" d="M601 -440 q-39 0 -78 3.5 q-39 3.5 -81 10.5 q-41 7 -81.5 17 q-40.5 10 -84.5 24 l0 182 q49 -23 94.5 -40 q45.5 -17 83.5 -28 q78 -22 151 -22 q74 0 126 20 q52 20 87 62 q68 80 68 256 l0 133 q-43 -93 -120 -140 q-76 -46 -184 -46 q-197 0 -314 157 q-117 157 -117 420 q0 263 117 421 q59 79 136.5 118 q77.5 39 178.5 39 q52 0 97.5 -10.5 q45.5 -10.5 83.5 -32.5 q76 -44 122 -133 l18 145 l166 0 l0 -1044 q0 -251 -119 -382 q-118 -130 -350 -130 ZM622 145 q130 0 197 109 q67 109 67 315 q0 208 -67 315 q-35 57 -85.5 82 q-50.5 25 -112.5 25 q-134 0 -205 -107 q-71 -107 -71 -316 q0 -205 72 -314 q72 -109 205 -109 Z" /><glyph glyph-name="h" unicode="h" d="M195 1556 l184 0 l0 -604 q50 97 133 146 q83 49 198 49 q90 0 153 -29 q63 -29 104 -83 q84 -113 84 -341 l0 -694 l-185 0 l0 694 q0 151 -53 222 q-53 71 -167 71 q-66 0 -114.5 -23 q-48.5 -23 -82.5 -68 q-70 -91 -70 -263 l0 -633 l-184 0 l0 1556 Z" /><glyph glyph-name="i" unicode="i" d="M523 1323 q-30 0 -30 30 l0 173 q0 30 30 30 l144 0 q30 0 30 -30 l0 -173 q0 -30 -30 -30 l-144 0 ZM859 -8 q-80 0 -143.5 25 q-63.5 25 -111.5 81 q-91 106 -91 300 l0 578 l-245 0 l0 144 l429 0 l0 -722 q0 -125 46 -187 q24 -33 57.5 -48 q33.5 -15 76.5 -15 l215 0 l0 -156 l-233 0 Z" /><glyph glyph-name="j" unicode="j" d="M652 1323 q-30 0 -30 30 l0 173 q0 30 30 30 l144 0 q30 0 30 -30 l0 -173 q0 -30 -30 -30 l-144 0 ZM238 -270 l234 0 q90 0 135 62 q45 63 45 188 l0 997 l-317 0 l0 143 l501 0 l0 -1140 q0 -95 -22 -171 q-22 -76 -67 -130 q-45 -54 -109.5 -79.5 q-64.5 -25.5 -145.5 -25.5 l-254 0 l0 156 Z" /><glyph glyph-name="k" unicode="k" d="M226 1556 l190 0 l0 -901 l483 465 l224 0 l-441 -422 l510 -698 l-225 0 l-414 578 l-137 -129 l0 -449 l-190 0 l0 1556 Z" /><glyph glyph-name="l" unicode="l" d="M821 -8 q-80 0 -143.5 25 q-63.5 25 -111.5 81 q-91 106 -91 300 l0 1014 l-295 0 l0 144 l479 0 l0 -1158 q0 -125 46 -187 q24 -33 57.5 -48 q33.5 -15 76.5 -15 l215 0 l0 -156 l-233 0 l0 0 Z" /><glyph glyph-name="m" unicode="m" d="M109 1120 l151 0 l16 -96 q33 60 83 92 q49 31 113 31 q74 0 126 -35 q49 -34 78 -106 q35 73 87 107 q52 34 126 34 q69 0 117 -26.5 q48 -26.5 74 -77.5 q55 -104 55 -394 l0 -649 l-168 0 l0 641 q0 64 -1.5 112 q-1.5 48 -5 83.5 q-3.5 35.5 -8.5 60 q-5 24.5 -12 39.5 q-11 26 -34 41.5 q-23 15.5 -65 15.5 q-38 0 -64 -14.5 q-26 -14.5 -41 -46.5 q-17 -35 -24 -103.5 q-7 -68.5 -7 -187.5 l0 -641 l-168 0 l0 641 q0 73 -2 123.5 q-2 50.5 -6 84.5 q-4 34 -9.5 54.5 q-5.5 20.5 -11.5 33.5 q-13 26 -37.5 41 q-24.5 15 -63.5 15 q-42 0 -65.5 -16.5 q-23.5 -16.5 -35.5 -43.5 q-7 -15 -12.5 -38 q-5.5 -23 -9.5 -57.5 q-4 -34.5 -6 -82.5 q-2 -48 -2 -114 l0 -641 l-167 0 l0 1120 Z" /><glyph glyph-name="n" unicode="n" d="M195 1120 l166 0 l18 -168 q50 97 133 146 q83 49 198 49 q90 0 153 -29 q63 -29 104 -83 q84 -113 84 -341 l0 -694 l-185 0 l0 694 q0 151 -53 222 q-53 71 -167 71 q-66 0 -114.5 -23 q-48.5 -23 -82.5 -68 q-70 -91 -70 -263 l0 -633 l-184 0 l0 1120 Z" /><glyph glyph-name="o" unicode="o" d="M616 -29 q-115 0 -204.5 37.5 q-89.5 37.5 -151.5 112.5 q-63 78 -93 188.5 q-30 110.5 -30 250.5 q0 284 123 436 q123 151 356 151 q120 0 208.5 -38.5 q88.5 -38.5 148.5 -112.5 q123 -152 123 -435 q0 -143 -30.5 -254 q-30.5 -111 -92.5 -186 q-60 -74 -149.5 -112 q-89.5 -38 -207.5 -38 ZM616 127 q141 0 213 110 q72 109 72 322 q0 213 -72 323 q-72 109 -213 109 q-140 0 -212 -109 q-72 -110 -72 -323 q0 -213 72 -322 q72 -110 212 -110 Z" /><glyph glyph-name="p" unicode="p" d="M190 1120 l167 0 l18 -143 q47 84 123 127 q76 43 177 43 q100 0 180 -39 q80 -39 138 -118 q58 -79 86.5 -187.5 q28.5 -108.5 28.5 -245.5 q0 -275 -116 -430 q-116 -156 -318 -156 q-57 0 -99 11.5 q-42 11.5 -79 32.5 q-78 45 -121 126 l0 -567 l-185 0 l0 1546 ZM647 127 q134 0 201 109 q67 109 67 323 q0 214 -67 323 q-67 109 -201 109 q-134 0 -203 -109 q-69 -110 -69 -323 q0 -213 69 -322 q69 -110 203 -110 Z" /><glyph glyph-name="q" unicode="q" d="M870 139 q-22 -40 -51 -72 q-29 -32 -70 -55 q-77 -45 -180 -45 q-95 0 -175.5 38 q-80.5 38 -140.5 118 q-53 71 -84.5 176 q-31.5 105 -31.5 252 q0 134 28.5 245 q28.5 111 87.5 191 q58 78 138 117 q80 39 179 39 q102 0 178 -43 q38 -22 68.5 -53.5 q30.5 -31.5 53.5 -73.5 l18 143 l167 0 l0 -1546 l-185 0 l0 569 ZM599 123 q66 0 117 27 q51 27 86 83 q68 110 68 322 q0 213 -68 323 q-35 56 -85.5 82.5 q-50.5 26.5 -116.5 26.5 q-133 0 -200 -109 q-68 -110 -68 -323 q0 -213 68 -323 q67 -109 199 -109 Z" /><glyph glyph-name="r" unicode="r" d="M302 1120 l167 0 l18 -219 q47 119 142 183 q94 63 225 63 q68 0 128 -17 q29 -8 58 -21.5 q29 -13.5 55 -31.5 l0 -188 q-57 46 -120 67 q-62 21 -135 21 q-171 0 -262 -108 q-91 -107 -91 -312 l0 -557 l-185 0 l0 1120 Z" /><glyph glyph-name="s" unicode="s" d="M590 -29 q-44 0 -90.5 4.5 q-46.5 4.5 -89.5 12.5 q-39 8 -91.5 22 q-52.5 14 -105.5 31 l0 190 q64 -32 109 -49.5 q45 -17.5 88 -29.5 q46 -13 89 -20 q43 -7 89 -7 q121 0 189 50 q35 26 51 61 q16 35 16 71 q0 70 -59 113.5 q-59 43.5 -186 69.5 l-8 2 l-69 14 q-75 15 -133.5 40 q-58.5 25 -98.5 65 q-73 73 -73 201 q0 81 27.5 143 q27.5 62 81.5 105 q57 46 136 66.5 q79 20.5 177 20.5 q43 0 86 -4 q43 -4 85 -12 q38 -8 79.5 -20.5 q41.5 -12.5 83.5 -29.5 l0 -180 q-80 46 -159 69 q-40 11 -80.5 17 q-40.5 6 -86.5 6 q-58 0 -104.5 -10 q-46.5 -10 -77.5 -30 q-62 -41 -62 -125 q0 -35 11.5 -64 q11.5 -29 34.5 -47 q23 -18 76.5 -35.5 q53.5 -17.5 152.5 -36.5 l74 -14 q72 -14 123 -40 q51 -26 85 -64 q70 -77 70 -204 q0 -86 -30.5 -149.5 q-30.5 -63.5 -87.5 -108.5 q-61 -48 -142.5 -71 q-81.5 -23 -179.5 -23 Z" /><glyph glyph-name="t" unicode="t" d="M807 -4 q-206 0 -292 83 q-85 82 -85 286 l0 612 l-299 0 l0 143 l299 0 l0 293 l184 80 l0 -373 l418 0 l0 -143 l-418 0 l0 -612 q0 -123 47 -173 q46 -49 164 -49 l207 0 l0 -147 l-225 0 l0 0 Z" /><glyph glyph-name="u" unicode="u" d="M534 -29 q-171 0 -255 113 q-84 112 -84 340 l0 694 l184 0 l0 -694 q0 -152 54 -222 q26 -34 65.5 -52.5 q39.5 -18.5 99.5 -18.5 q130 0 199 92 q69 91 69 262 l0 633 l185 0 l0 -1118 l-167 0 l-18 168 q-50 -98 -133 -147 q-85 -50 -199 -50 Z" /><glyph glyph-name="v" unicode="v" d="M100 1120 l191 0 l325 -940 l326 940 l191 0 l-398 -1120 l-237 0 l-398 1120 Z" /><glyph glyph-name="w" unicode="w" d="M0 1120 l182 0 l195 -905 l160 578 l157 0 l162 -578 l195 905 l182 0 l-262 -1120 l-176 0 l-179 614 l-178 -614 l-176 0 l-262 1120 Z" /><glyph glyph-name="x" unicode="x" d="M516 584 l-401 536 l204 0 l297 -405 l295 405 l207 0 l-401 -536 l440 -584 l-213 0 l-328 449 l-327 -449 l-213 0 l440 584 Z" /><glyph glyph-name="y" unicode="y" d="M184 -272 l109 0 q45 0 76 13.5 q31 13.5 51 33.5 q22 23 50 79 q28 56 67 164 l-433 1102 l195 0 l332 -876 l327 876 l195 0 l-295 -760 q-24 -62 -37.5 -96 q-13.5 -34 -21 -53.5 q-7.5 -19.5 -11.5 -30 q-4 -10.5 -9 -24.5 q-5 -14 -13.5 -37 q-8.5 -23 -24.5 -67 q-30 -81 -51.5 -136 q-21.5 -55 -37.5 -91.5 q-16 -36.5 -26.5 -58 q-10.5 -21.5 -17.5 -34.5 q-22 -38 -49 -67.5 q-27 -29.5 -66 -51.5 q-69 -39 -161 -39 l-148 0 l0 154 Z" /><glyph glyph-name="z" unicode="z" d="M203 170 l643 805 l-619 0 l0 147 l813 0 l0 -168 l-643 -804 l643 0 l0 -150 l-837 0 l0 170 Z" /><glyph glyph-name="ordmasculine" unicode="º" d="M616 698 q-94 0 -160 31 q-66 31 -111 80 q-47 51 -74 126 q-27 75 -27 173 q0 92 25 167.5 q25 75.5 76 132.5 q47 52 114 82 q67 30 158 30 q90 0 157.5 -30 q67.5 -30 114.5 -83 q100 -112 100 -299 q0 -186 -100 -298 q-47 -52 -114.5 -82 q-67.5 -30 -158.5 -30 ZM616 815 q49 0 90 19.5 q41 19.5 70 58.5 q27 36 42.5 90 q15.5 54 15.5 127 q0 137 -57 215 q-27 37 -66.5 57.5 q-39.5 20.5 -93.5 20.5 q-103 0 -160 -77 q-58 -79 -58 -218 q0 -69 14.5 -123.5 q14.5 -54.5 43.5 -93.5 q58 -76 159 -76 ZM276 592 l676 0 l0 -123 l-676 0 l0 123 Z" /><glyph glyph-name="uni0414" unicode="&#x414;" d="M33 170 l77 0 q16 0 31 38.5 q15 38.5 28 104 q13 65.5 23.5 151.5 q10.5 86 18.5 181 q8 95 12 193.5 q4 98.5 4 188.5 l0 466 l852 0 l0 -1323 l121 0 l0 -492 l-170 0 l0 322 l-827 0 l0 -322 l-170 0 l0 492 ZM876 170 l0 1153 l-446 0 l0 -297 q0 -75 -4 -163 q-4 -88 -10 -176.5 q-6 -88.5 -13.5 -171.5 q-7.5 -83 -14 -148.5 q-6.5 -65.5 -11.5 -106.5 q-5 -41 -7 -46 q-6 -14 -6 -22 q0 -22 47 -22 l465 0 Z" /><glyph glyph-name="uni0394" unicode="&#x394;" d="M494 1493 l245 0 l457 -1493 l-1159 0 l457 1493 ZM938 170 l-322 1145 l-322 -1145 l644 0 Z" /><glyph glyph-name="uni03BC" unicode="&#x3bc;" d="M195 1120 l184 0 l0 -696 q0 -143 59.5 -218 q59.5 -75 171.5 -75 q128 0 192 84.5 q64 84.5 64 251.5 l0 653 l185 0 l0 -864 q0 -60 16 -87.5 q16 -27.5 49 -27.5 q7 0 24 5 q13 4 42 18 l0 -148 q-38 -23 -72 -34 q-34 -11 -68 -11 q-125 0 -149 158 q-46 -81 -112 -119.5 q-66 -38.5 -156 -38.5 q-93 0 -155.5 37.5 q-62.5 37.5 -107.5 118.5 l0 -555 l-167 0 l0 1548 Z" /><glyph glyph-name="zero" unicode="0" d="M616 -29 q-240 0 -361 196 q-122 197 -122 578 q0 382 122 579 q121 196 361 196 q118 0 209 -48 q91 -48 153 -148 q60 -96 91 -239.5 q31 -143.5 31 -339.5 q0 -196 -31 -339 q-31 -143 -91 -239 q-123 -196 -362 -196 ZM616 131 q73 0 125.5 39 q52.5 39 86.5 113 q69 151 69 462 q0 312 -69 462 q-34 75 -86 114 q-52 39 -126 39 q-141 0 -210 -152 q-35 -75 -52.5 -188.5 q-17.5 -113.5 -17.5 -274.5 q0 -312 70 -462 q36 -78 88.5 -115 q52.5 -37 121.5 -37 ZM618 396 q-15 0 -27.5 11.5 q-12.5 11.5 -22 31 q-9.5 19.5 -16.5 46 q-7 26.5 -13 55.5 q-5 24 -9 53 q-4 29 -7 58.5 q-3 29.5 -5 55.5 q-2 26 -2 43 q0 12 1 35 q1 23 3.5 51 q2.5 28 6 58.5 q3.5 30.5 9.5 58.5 q28 143 78 143 q28 0 47.5 -38 q19.5 -38 33.5 -108 q5 -25 9 -54 q4 -29 7 -57.5 q3 -28.5 4.5 -54 q1.5 -25.5 1.5 -42.5 q0 -10 -0.5 -31 q-0.5 -21 -2.5 -48.5 q-2 -27.5 -5.5 -58.5 q-3.5 -31 -8.5 -62 q-13 -74 -34.5 -110 q-21.5 -36 -47.5 -36 Z" /><glyph glyph-name="one" unicode="1" d="M270 170 l314 0 l0 1141 l-338 -76 l0 184 l336 74 l202 0 l0 -1323 l310 0 l0 -170 l-824 0 l0 170 Z" /><glyph glyph-name="two" unicode="2" d="M152 134 q0 19 5.5 33.5 q5.5 14.5 19.5 28.5 q57 60 135 142.5 q78 82.5 167 179.5 q51 55 82 89 q31 34 51 56 q20 22 32.5 36.5 q12.5 14.5 26.5 31.5 q27 32 47.5 58.5 q20.5 26.5 37 50 q16.5 23.5 29 45.5 q12.5 22 22.5 44 q17 38 26 76 q9 38 9 80 q0 60 -18 109.5 q-18 49.5 -55 84.5 q-74 71 -203 71 q-90 0 -190 -33 q-100 -33 -212 -100 l0 204 q52 25 103.5 43.5 q51.5 18.5 99.5 30.5 q50 13 99 19 q49 6 97 6 q104 0 195 -28 q91 -28 159 -88 q60 -53 96 -129.5 q36 -76.5 36 -172.5 q0 -51 -11 -99.5 q-11 -48.5 -33 -97.5 q-11 -25 -25 -49 q-14 -24 -31.5 -49 q-17.5 -25 -39.5 -52.5 q-22 -27.5 -49 -59.5 q-29 -34 -69 -79 q-40 -45 -93 -102 q-38 -41 -70 -73.5 q-32 -32.5 -68.5 -69 q-36.5 -36.5 -83 -83.5 q-46.5 -47 -113.5 -118 l696 0 l0 -170 l-907 0 l0 134 Z" /><glyph glyph-name="three" unicode="3" d="M566 -29 q-48 0 -100.5 4.5 q-52.5 4.5 -106.5 14.5 q-46 8 -101 22 q-55 14 -109 33 l0 204 q51 -26 100 -47 q49 -21 101 -35 q50 -13 98.5 -19.5 q48.5 -6.5 98.5 -6.5 q166 0 255 75 q45 38 67 92 q22 54 22 121 q0 134 -88 210 q-43 37 -104 56.5 q-61 19.5 -138 19.5 l-154 0 l0 166 l154 0 q140 0 218 61 q77 60 77 173 q0 54 -18 98.5 q-18 44.5 -54 75.5 q-71 61 -210 61 q-41 0 -87 -5 q-46 -5 -94 -15 q-97 -20 -199 -60 l0 186 q121 31 216 48 q92 16 169 16 q105 0 193.5 -27 q88.5 -27 154.5 -82 q62 -52 95.5 -125 q33.5 -73 33.5 -164 q0 -65 -17.5 -116 q-17.5 -51 -50.5 -91 q-68 -81 -200 -116 q147 -39 225 -138 q41 -52 59.5 -115 q18.5 -63 18.5 -135 q0 -100 -34 -181.5 q-34 -81.5 -103 -140.5 q-68 -58 -164.5 -88 q-96.5 -30 -223.5 -30 Z" /><glyph glyph-name="four" unicode="4" d="M735 356 l-633 0 l0 191 l600 946 l234 0 l0 -973 l199 0 l0 -164 l-199 0 l0 -356 l-201 0 l0 356 ZM735 520 l0 789 l-471 -789 l471 0 Z" /><glyph glyph-name="five" unicode="5" d="M525 -29 q-45 0 -100.5 4 q-55.5 4 -104.5 12 q-51 8 -94 20 q-43 12 -83 28 l0 205 q93 -50 185 -74 q94 -25 185 -25 q174 0 263 88 q90 88 90 248 q0 87 -25 149 q-25 62 -68 103 q-42 40 -108 64 q-66 24 -157 24 q-37 0 -76.5 -4.5 q-39.5 -4.5 -77.5 -13.5 q-37 -9 -76 -24 q-39 -15 -71 -32 l0 750 l756 0 l0 -170 l-572 0 l0 -367 q43 16 87 24 q41 7 88 7 q121 0 213 -37 q92 -37 155 -100 q68 -69 101.5 -162.5 q33.5 -93.5 33.5 -206.5 q0 -118 -36 -213 q-36 -95 -105 -162 q-69 -66 -168.5 -100.5 q-99.5 -34.5 -234.5 -34.5 Z" /><glyph glyph-name="six" unicode="6" d="M633 -29 q-137 0 -228 48.5 q-91 48.5 -150 139.5 q-63 98 -92.5 240 q-29.5 142 -29.5 325 q0 206 36.5 353 q36.5 147 108.5 245 q72 98 177.5 148 q105.5 50 242.5 50 q41 0 79.5 -4 q38.5 -4 70.5 -11 q40 -8 75.5 -20 q35.5 -12 67.5 -25 l0 -186 q-30 18 -65 33 q-35 15 -69 24 q-35 10 -73 14.5 q-38 4.5 -73 4.5 q-195 0 -293 -144 q-99 -146 -99 -426 q48 100 133 154 q45 28 94 40.5 q49 12.5 109 12.5 q100 0 183.5 -33 q83.5 -33 143.5 -99 q60 -66 89 -161 q29 -95 29 -213 q0 -122 -30.5 -216.5 q-30.5 -94.5 -90.5 -160.5 q-60 -66 -146.5 -99.5 q-86.5 -33.5 -199.5 -33.5 ZM633 129 q65 0 115.5 22 q50.5 22 84.5 67 q68 89 68 261 q0 173 -68 262 q-35 46 -86 67 q-51 21 -113 21 q-70 0 -121 -24.5 q-51 -24.5 -85 -67.5 q-35 -44 -54.5 -108.5 q-19.5 -64.5 -19.5 -149.5 q0 -85 19.5 -149.5 q19.5 -64.5 54.5 -108.5 q34 -43 85 -67.5 q51 -24.5 120 -24.5 Z" /><glyph glyph-name="seven" unicode="7" d="M854 1323 l-715 0 l0 170 l940 0 l0 -86 l-534 -1407 l-211 0 l520 1323 Z" /><glyph glyph-name="eight" unicode="8" d="M615 -29 q-116 0 -204.5 29.5 q-88.5 29.5 -150.5 83.5 q-62 54 -95.5 132.5 q-33.5 78.5 -33.5 183.5 q0 159 80 260 q79 100 229 133 q-61 15 -113 46 q-52 31 -88 76 q-38 47 -55.5 103 q-17.5 56 -17.5 119 q0 85 30 155.5 q30 70.5 91 123.5 q59 51 140.5 77.5 q81.5 26.5 188.5 26.5 q107 0 189 -26.5 q82 -26.5 141 -77.5 q60 -51 90.5 -121.5 q30.5 -70.5 30.5 -158.5 q0 -68 -18.5 -122 q-18.5 -54 -53.5 -98 q-35 -44 -85.5 -75 q-50.5 -31 -116.5 -48 q151 -33 230 -133 q79 -100 79 -258 q0 -105 -33.5 -184.5 q-33.5 -79.5 -95.5 -133.5 q-63 -55 -153 -84 q-90 -29 -205 -29 ZM616 868 q121 0 186 63 q64 63 64 183 q0 121 -63 186 q-64 64 -187 64 q-121 0 -185 -64 q-64 -64 -64 -186 q0 -120 64 -183 q64 -63 185 -63 ZM619 129 q66 0 118 19 q52 19 89 57 q37 38 55 91.5 q18 53.5 18 121.5 q0 74 -19.5 127 q-19.5 53 -54.5 88 q-75 76 -209 76 q-135 0 -208 -75 q-35 -36 -54.5 -89.5 q-19.5 -53.5 -19.5 -123.5 q0 -68 18.5 -122.5 q18.5 -54.5 55.5 -92.5 q38 -39 91.5 -58 q53.5 -19 119.5 -19 Z" /><glyph glyph-name="nine" unicode="9" d="M528 -29 q-37 0 -75.5 3.5 q-38.5 3.5 -73.5 11.5 q-32 7 -70 19 q-38 12 -73 26 l0 186 q32 -19 66.5 -33 q34.5 -14 67.5 -23 q72 -20 147 -20 q193 0 292 145 q98 145 98 425 q-23 -51 -58 -90 q-35 -39 -74 -64 q-83 -53 -206 -53 q-100 0 -182 33.5 q-82 33.5 -141 99.5 q-119 134 -119 373 q0 118 29.5 214.5 q29.5 96.5 92.5 164.5 q60 66 147 98.5 q87 32.5 198 32.5 q137 0 228 -48.5 q91 -48.5 150 -139.5 q64 -100 93 -243 q29 -143 29 -323 q0 -198 -34.5 -347 q-34.5 -149 -109.5 -250 q-74 -100 -181 -149 q-107 -49 -241 -49 ZM593 662 q70 0 121 24.5 q51 24.5 85 67.5 q35 44 54 108.5 q19 64.5 19 149.5 q0 85 -19 149.5 q-19 64.5 -54 108.5 q-34 43 -85 67.5 q-51 24.5 -121 24.5 q-62 0 -113 -21 q-51 -21 -86 -67 q-68 -89 -68 -262 q0 -173 68 -262 q34 -45 84.5 -66.5 q50.5 -21.5 114.5 -21.5 Z" /><glyph glyph-name="asterisk" unicode="*" d="M250 486 l242 371 l-364 158 l36 103 l376 -123 l20 425 l108 0 l20 -425 l376 123 l36 -103 l-364 -158 l242 -371 l-94 -67 l-270 357 l-270 -357 l-94 67 Z" /><glyph glyph-name="backslash" unicode="\" d="M102 1493 l191 0 l786 -1683 l-190 0 l-787 1683 Z" /><glyph glyph-name="colon" unicode=":" d="M620 776 q-68 0 -115 47 q-47 47 -47 122 q0 75 47 122 q47 47 115 47 q68 0 115 -47 q47 -47 47 -122 q0 -75 -47 -122 q-47 -47 -115 -47 ZM620 60 q-68 0 -115 47 q-47 47 -47 122 q0 75 47 122 q47 47 115 47 q68 0 115 -47 q47 -47 47 -122 q0 -75 -47 -122 q-47 -47 -115 -47 Z" /><glyph glyph-name="comma" unicode="," d="M400 -283 q244 109 252 334 q-12 -2 -21.5 -3 q-9.5 -1 -18.5 -1 q-32 0 -60 9.5 q-28 9.5 -50 29.5 q-44 39 -44 110 q0 33 11 62.5 q11 29.5 35 50.5 q20 17 50 28.5 q30 11.5 66 11.5 q85 0 132 -68 q46 -67 46 -188 q0 -171 -92 -295 q-92 -123 -260 -185 l-46 104 Z" /><glyph glyph-name="ellipsis" unicode="&#x2026;" d="M110 0 q-30 0 -30 30 l0 245 q0 30 30 30 l192 0 q30 0 30 -30 l0 -245 q0 -30 -30 -30 l-192 0 ZM519 0 q-30 0 -30 30 l0 245 q0 30 30 30 l192 0 q30 0 30 -30 l0 -245 q0 -30 -30 -30 l-192 0 ZM929 0 q-30 0 -30 30 l0 245 q0 30 30 30 l192 0 q30 0 30 -30 l0 -245 q0 -30 -30 -30 l-192 0 Z" /><glyph glyph-name="exclam" unicode="!" d="M481 1053 l0 445 l265 0 l0 -445 l-67 -567 l-121 0 l-77 567 ZM616 -60 q-70 0 -116 48 q-46 47 -46 125 q0 77 46 124 q47 47 116 47 q69 0 116 -47 q46 -46 46 -124 q0 -42 -11.5 -72 q-11.5 -30 -34.5 -53 q-47 -48 -116 -48 Z" /><glyph glyph-name="numbersign" unicode="#" d="M260 414 l-258 0 l0 153 l297 0 l84 334 l-266 0 l0 154 l303 0 l104 415 l160 0 l-104 -415 l245 0 l105 415 l160 0 l-105 -415 l244 0 l0 -154 l-281 0 l-84 -334 l250 0 l0 -153 l-289 0 l-104 -414 l-160 0 l105 414 l-246 0 l-105 -414 l-159 0 l104 414 ZM705 567 l83 334 l-245 0 l-84 -334 l246 0 Z" /><glyph glyph-name="period" unicode="." d="M613 -27 q-68 0 -115 47 q-47 47 -47 122 q0 75 47 122 q47 47 115 47 q68 0 115 -47 q47 -47 47 -122 q0 -75 -47 -122 q-47 -47 -115 -47 Z" /><glyph glyph-name="question" unicode="?" d="M494 583 q0 78 30 146 q17 36 44.5 72 q27.5 36 70.5 79 l90 89 q29 29 51.5 55.5 q22.5 26.5 33.5 47.5 q24 43 24 94 q0 47 -18 82.5 q-18 35.5 -47 60.5 q-33 28 -76.5 41.5 q-43.5 13.5 -96.5 13.5 q-82 0 -169 -34 q-45 -17 -91.5 -43 q-46.5 -26 -95.5 -60 l0 188 q48 29 96.5 50.5 q48.5 21.5 93.5 34.5 q46 14 94.5 21 q48.5 7 100.5 7 q100 0 175.5 -25.5 q75.5 -25.5 126.5 -70.5 q54 -48 81.5 -113.5 q27.5 -65.5 27.5 -140.5 q0 -80 -34 -145 q-36 -67 -127 -157 l-88 -86 q-70 -68 -88 -108 q-19 -40 -19 -83 l0 -127 l-190 0 l0 111 ZM593 -40 q-62 0 -104 42 q-22 22 -32.5 50.5 q-10.5 28.5 -10.5 60.5 q0 32 10.5 60 q10.5 28 31.5 49 q17 17 43.5 29.5 q26.5 12.5 60.5 12.5 q32 0 58 -11 q26 -11 46 -31 q42 -42 42 -109 q0 -68 -42 -110 q-43 -43 -103 -43 Z" /><glyph glyph-name="questiondown" unicode="¿" d="M656 1252 q-62 0 -104 42 q-22 22 -32.5 50.5 q-10.5 28.5 -10.5 60.5 q0 32 10.5 60 q10.5 28 31.5 49 q17 17 43.5 29.5 q26.5 12.5 60.5 12.5 q32 0 58 -11 q26 -11 46 -31 q42 -42 42 -109 q0 -68 -42 -110 q-43 -43 -103 -43 ZM602 -27 q-188 0 -298 95 q-54 47 -82.5 112 q-28.5 65 -28.5 144 q0 42 8.5 76.5 q8.5 34.5 25.5 67.5 q17 33 47.5 71 q30.5 38 79.5 86 l88 86 q30 29 52.5 55 q22.5 26 33.5 51 q19 41 19 105 l0 5 q1 11 1.5 21.5 q0.5 10.5 0.5 20.5 l0 123 l190 0 l0 -154 q0 -99 -30 -166 q-30 -68 -115 -151 l-90 -89 q-20 -20 -46 -48 q-26 -28 -40 -55 q-13 -24 -18 -50.5 q-5 -26.5 -5 -46.5 q0 -43 18 -79.5 q18 -36.5 47 -60.5 q33 -28 77.5 -41.5 q44.5 -13.5 95.5 -13.5 q42 0 83 9 q41 9 86 26 q91 35 187 102 l0 -188 q-50 -30 -98 -51 q-48 -21 -91 -34 q-48 -14 -98.5 -21 q-50.5 -7 -99.5 -7 Z" /><glyph glyph-name="quotedbl" unicode="&quot;" d="M338 1493 l174 0 l0 -555 l-174 0 l0 555 ZM721 1493 l174 0 l0 -555 l-174 0 l0 555 Z" /><glyph glyph-name="quotesingle" unicode="&#39;" d="M528 1493 l174 0 l0 -555 l-174 0 l0 555 Z" /><glyph glyph-name="semicolon" unicode=";" d="M610 703 q-72 0 -120 50 q-50 48 -50 128 q0 78 50 128 q48 49 120 49 q73 0 121 -49 q49 -49 49 -128 q0 -80 -49 -128 q-48 -50 -121 -50 ZM394 -361 q256 114 265 351 q-13 -3 -23 -4 q-10 -1 -19 -1 q-33 0 -63 10.5 q-30 10.5 -53 30.5 q-46 43 -46 116 q0 35 11.5 65.5 q11.5 30.5 36.5 52.5 q21 19 52.5 30.5 q31.5 11.5 69.5 11.5 q89 0 139 -71 q48 -71 48 -197 q0 -180 -97 -310 q-97 -130 -273 -194 l-48 109 Z" /><glyph glyph-name="slash" unicode="/" d="M889 1493 l190 0 l-786 -1683 l-191 0 l787 1683 Z" /><glyph glyph-name="underscore" unicode="_" d="M94 -190 l1044 0 l0 -120 l-1044 0 l0 120 Z" /><glyph glyph-name="uni203E" unicode="&#x203e;" d="M0 1547 l1233 0 l0 -80 l-1233 0 l0 80 Z" /><glyph glyph-name="braceleft" unicode="{" d="M908 -253 q-248 0 -333 74 q-85 73 -85 295 l0 239 q0 150 -53 209 q-54 58 -194 58 l-116 0 l0 143 l116 0 q141 0 194 57 q53 58 53 207 l0 240 q0 222 85 295 q83 73 333 73 l64 0 l0 -143 l-70 0 q-140 0 -182 -43 q-43 -43 -43 -186 l0 -248 q0 -158 -45 -228 q-22 -34 -61 -58.5 q-39 -24.5 -95 -37.5 q111 -27 156 -98 q45 -71 45 -227 l0 -248 q0 -143 43 -186 q42 -43 182 -43 l70 0 l0 -144 l-64 0 l0 0 Z" /><glyph glyph-name="braceright" unicode="}" d="M261 -118 l68 0 q140 0 184 44 q43 43 43 185 l0 248 q0 156 45 227 q45 71 156 98 q-110 26 -155 96 q-22 34 -34 88.5 q-12 54.5 -12 139.5 l0 248 q0 142 -43 185 q-44 44 -184 44 l-68 0 l0 143 l62 0 q250 0 333 -73 q84 -74 84 -295 l0 -240 q0 -78 21 -127.5 q21 -49.5 63 -79.5 q40 -29 97.5 -43 q57.5 -14 126.5 -14 l64 0 l0 -143 l-64 0 q-71 0 -128 -14.5 q-57 -14.5 -96 -43.5 q-42 -31 -63 -81 q-21 -50 -21 -128 l0 -239 q0 -222 -84 -295 q-85 -74 -333 -74 l-62 0 l0 144 Z" /><glyph glyph-name="bracketleft" unicode="[" d="M423 1636 l424 0 l0 -143 l-240 0 l0 -1620 l240 0 l0 -143 l-424 0 l0 1906 Z" /><glyph glyph-name="bracketright" unicode="]" d="M386 -127 l240 0 l0 1619 l-240 0 l0 143 l424 0 l0 -1905 l-424 0 l0 143 Z" /><glyph glyph-name="parenleft" unicode="(" d="M595 -270 q-78 124 -133 237.5 q-55 113.5 -92 226.5 q-74 227 -74 449 q0 221 74 449 q38 115 93 228.5 q55 113.5 132 233.5 l160 0 q-71 -121 -118.5 -231.5 q-47.5 -110.5 -79.5 -222.5 q-34 -118 -50 -230 q-16 -112 -16 -227 q0 -118 16.5 -229.5 q16.5 -111.5 49.5 -226.5 q33 -115 81 -226 q48 -111 117 -231 l-160 0 l0 0 Z" /><glyph glyph-name="parenright" unicode=")" d="M478 -270 q132 231 199 459 q31 107 48 222 q17 115 17 232 q0 112 -16.5 227.5 q-16.5 115.5 -48.5 227.5 q-31 107 -80.5 222 q-49.5 115 -118.5 234 l160 0 q153 -237 225 -462 q74 -228 74 -449 q0 -223 -74 -451 q-74 -227 -225 -462 l-160 0 l0 0 Z" /><glyph glyph-name="emdash" unicode="&#x2014;" d="M0 633 l1233 0 l0 -141 l-1233 0 l0 141 Z" /><glyph glyph-name="endash" unicode="&#x2013;" d="M0 633 l1233 0 l0 -141 l-1233 0 l0 141 Z" /><glyph glyph-name="hyphen" unicode="-" d="M206 683 l821 0 l0 -164 l-821 0 l0 164 Z" /><glyph glyph-name="quotedblleft" unicode="&#x201c;" d="M211 1174 l199 382 l153 0 l-98 -382 l0 -207 l-254 0 l0 207 ZM672 1174 l196 382 l154 0 l-98 -382 l0 -207 l-252 0 l0 207 Z" /><glyph glyph-name="quotedblright" unicode="&#x201d;" d="M309 1350 l0 206 l252 0 l0 -206 l-196 -383 l-154 0 l98 383 ZM768 1350 l0 206 l252 0 l0 -206 l-197 -383 l-153 0 l98 383 Z" /><glyph glyph-name="quoteright" unicode="&#x2019;" d="M561 1350 l0 206 l252 0 l0 -206 l-197 -383 l-153 0 l98 383 Z" /><glyph glyph-name="uni27E8" unicode="&#x27e8;" d="M391 642 l281 912 l170 0 l-281 -912 l281 -912 l-170 0 l-281 912 Z" /><glyph glyph-name="uni27E9" unicode="&#x27e9;" d="M672 642 l-281 912 l170 0 l281 -912 l-281 -912 l-170 0 l281 912 Z" /><glyph glyph-name="dollar" unicode="$" d="M591 0 q-51 2 -101 9.5 q-50 7.5 -101 18.5 q-50 11 -98 26.5 q-48 15.5 -101 37.5 l0 180 q54 -33 102 -55.5 q48 -22.5 100 -39.5 q102 -34 200 -35 l0 458 q-100 16 -174.5 45.5 q-74.5 29.5 -126.5 76.5 q-51 46 -76 105.5 q-25 59.5 -25 136.5 q0 156 106 250 q106 94 296 107 l0 235 l100 0 l0 -235 q41 -2 82.5 -7.5 q41.5 -5.5 78.5 -12.5 q41 -8 82 -18 q41 -10 83 -23 l0 -173 q-44 23 -90 41 q-46 18 -75 26 q-34 10 -76.5 17.5 q-42.5 7.5 -84.5 9.5 l0 -431 q207 -32 314 -128 q108 -98 108 -249 q0 -76 -28 -140.5 q-28 -64.5 -88 -118.5 q-116 -103 -305 -112 l0 -303 l-102 0 l0 301 ZM592 1183 q-104 -5 -162 -60 q-59 -56 -59 -149 q0 -46 14 -79 q14 -33 41 -58 q55 -50 166 -67 l0 413 ZM692 146 q111 3 172 61 q62 59 62 156 q0 46 -13.5 83.5 q-13.5 37.5 -42.5 63.5 q-55 50 -178 70 l0 -434 Z" /><glyph glyph-name="yen" unicode="¥" d="M514 524 l-399 0 l0 111 l399 0 l0 35 l-90 151 l-309 0 l0 111 l243 0 l-321 561 l215 0 l364 -659 l363 659 l217 0 l-330 -561 l252 0 l0 -111 l-315 0 l-86 -151 l0 -35 l401 0 l0 -111 l-401 0 l0 -524 l-203 0 l0 524 Z" /><glyph glyph-name="asciitilde" unicode="~" d="M1151 782 q-4 -112 -17.5 -194 q-13.5 -82 -50.5 -147 q-72 -145 -237 -145 q-79 0 -137 34 q-52 33 -126 134 q-78 108 -115 137 q-40 29 -77 29 q-77 0 -109 -72 q-35 -84 -42 -255 l-156 0 q5 208 68 340 q82 143 234 143 q73 0 132 -35 q30 -18 64.5 -51.5 q34.5 -33.5 66.5 -78.5 q54 -74 105 -125 q21 -22 42 -33 q21 -11 46 -11 q80 0 115.5 81.5 q35.5 81.5 37.5 248.5 l156 0 Z" /><glyph glyph-name="divide" unicode="÷" d="M524 889 q-30 0 -30 30 l0 186 q0 30 30 30 l185 0 q30 0 30 -30 l0 -186 q0 -30 -30 -30 l-185 0 ZM88 727 l1057 0 l0 -170 l-1057 0 l0 170 ZM524 150 q-30 0 -30 30 l0 185 q0 30 30 30 l185 0 q30 0 30 -30 l0 -185 q0 -30 -30 -30 l-185 0 Z" /><glyph glyph-name="dotmath" unicode="&#x22c5;" d="M519 559 q-30 0 -30 30 l0 245 q0 30 30 30 l192 0 q30 0 30 -30 l0 -245 q0 -30 -30 -30 l-192 0 l0 0 Z" /><glyph glyph-name="equal" unicode="=" d="M88 930 l1057 0 l0 -170 l-1057 0 l0 170 ZM88 524 l1057 0 l0 -172 l-1057 0 l0 172 Z" /><glyph glyph-name="gradient" unicode="&#x2207;" d="M-6 1423 l1247 0 l-520 -1423 l-209 0 l-518 1423 ZM985 1251 l-737 0 l368 -1047 l369 1047 Z" /><glyph glyph-name="greater" unicode="&gt;" d="M88 324 l850 317 l-850 320 l0 182 l1057 -418 l0 -166 l-1057 -418 l0 183 Z" /><glyph glyph-name="greaterequal" unicode="&#x2265;" d="M88 438 l803 234 l-803 231 l0 184 l1057 -331 l0 -168 l-1057 -332 l0 182 ZM88 170 l1057 0 l0 -170 l-1057 0 l0 170 Z" /><glyph glyph-name="infinity" unicode="&#x221e;" d="M332 250 q-61 0 -114.5 27 q-53.5 27 -94.5 80 q-41 53 -61.5 122.5 q-20.5 69.5 -20.5 152.5 q0 80 19.5 150.5 q19.5 70.5 58.5 122.5 q37 49 90.5 76 q53.5 27 122.5 27 q50 0 88 -14.5 q38 -14.5 71 -42.5 q34 -29 64.5 -73.5 q30.5 -44.5 60.5 -113.5 q24 61 55.5 106.5 q31.5 45.5 65.5 74.5 q34 29 74.5 46 q40.5 17 88.5 17 q63 0 115.5 -29 q52.5 -29 91.5 -80 q37 -48 61 -115.5 q24 -67.5 24 -157.5 q0 -83 -21.5 -152.5 q-21.5 -69.5 -59.5 -118.5 q-40 -52 -93.5 -78.5 q-53.5 -26.5 -114.5 -26.5 q-82 0 -147 50 q-34 26 -68.5 70.5 q-34.5 44.5 -73.5 110.5 q-64 -123 -131 -177 q-35 -29 -72.5 -41.5 q-37.5 -12.5 -78.5 -12.5 ZM318 391 q66 0 119 59 q54 60 100 185 q-30 72 -55 116.5 q-25 44.5 -47 67.5 q-46 49 -106 49 q-34 0 -64.5 -16.5 q-30.5 -16.5 -53.5 -49.5 q-20 -29 -32.5 -72.5 q-12.5 -43.5 -12.5 -102.5 q0 -51 10.5 -95 q10.5 -44 31.5 -77 q19 -29 46.5 -46.5 q27.5 -17.5 63.5 -17.5 ZM903 391 q34 0 64 16 q30 16 53 51 q22 32 33.5 75.5 q11.5 43.5 11.5 100.5 q0 105 -42 170 q-42 64 -112 64 q-66 0 -118 -58 q-53 -59 -99 -183 q32 -75 56 -118 q24 -43 47 -68 q45 -50 106 -50 Z" /><glyph glyph-name="integral" unicode="&#x222b;" d="M314 -371 q-41 0 -75 10 q-34 10 -60 31 q-26 22 -38 50.5 q-12 28.5 -12 58.5 q0 25 8 46.5 q8 21.5 26 38.5 q35 32 93 32 q35 0 59 -15 q25 -15 39 -42 q6 -12 9 -25.5 q3 -13.5 6 -33.5 q3 -20 7.5 -31 q4.5 -11 18.5 -11 q27 0 47.5 45 q20.5 45 35 132.5 q14.5 87.5 23 216 q8.5 128.5 12.5 294.5 q1 31 1 50.5 q0 19.5 0.5 36 q0.5 16.5 0.5 34 q0 17.5 1 44.5 q7 252 32 435.5 q25 183.5 75 300.5 q50 117 124.5 170 q74.5 53 167.5 53 q39 0 74.5 -9.5 q35.5 -9.5 61.5 -32.5 q49 -43 49 -109 q0 -51 -32 -83 q-32 -32 -87 -32 q-42 0 -70 19 q-16 11 -25 24 q-9 13 -15 30 q-4 11 -6 25.5 q-2 14.5 -4 25.5 q-3 19 -7.5 27.5 q-4.5 8.5 -16.5 8.5 q-51 0 -81 -154 q-30 -154 -37 -465 q0 -13 -1 -47 q-1 -34 -2 -77.5 q-1 -43.5 -2.5 -91 q-1.5 -47.5 -2.5 -87.5 q-5 -127 -14.5 -231.5 q-9.5 -104.5 -23 -189 q-13.5 -84.5 -32 -150 q-18.5 -65.5 -41.5 -115.5 q-47 -102 -118.5 -154.5 q-71.5 -52.5 -167.5 -52.5 Z" /><glyph glyph-name="less" unicode="&lt;" d="M88 559 l0 166 l1057 418 l0 -182 l-850 -320 l850 -317 l0 -183 l-1057 418 Z" /><glyph glyph-name="lessequal" unicode="&#x2264;" d="M86 588 l0 168 l1057 331 l0 -184 l-801 -231 l801 -234 l0 -182 l-1057 332 ZM86 170 l1057 0 l0 -170 l-1057 0 l0 170 Z" /><glyph glyph-name="logicaland" unicode="&#x2227;" d="M498 1186 l237 0 l333 -1186 l-191 0 l-261 940 l-261 -940 l-191 0 l334 1186 Z" /><glyph glyph-name="minus" unicode="&#x2212;" d="M88 727 l1057 0 l0 -170 l-1057 0 l0 170 Z" /><glyph glyph-name="multiply" unicode="×" d="M150 293 l350 348 l-350 350 l116 117 l350 -350 l351 350 l116 -117 l-350 -350 l348 -348 l-116 -119 l-349 350 l-348 -350 l-118 119 Z" /><glyph glyph-name="notequal" unicode="&#x2260;" d="M125 141 l164 211 l-201 0 l0 172 l330 0 l184 236 l-514 0 l0 170 l647 0 l246 315 l125 -102 l-164 -213 l203 0 l0 -170 l-334 0 l-184 -236 l518 0 l0 -172 l-647 0 l-248 -315 l-125 104 Z" /><glyph glyph-name="partialdiff" unicode="&#x2202;" d="M545 -25 q-72 0 -138 27 q-66 27 -116 80 q-51 54 -76 124.5 q-25 70.5 -25 154.5 q0 87 27.5 171.5 q27.5 84.5 82.5 149.5 q57 67 129.5 97 q72.5 30 148.5 30 q95 0 160 -45 q29 -20 56 -54 q27 -34 48 -89 q8 44 13.5 85.5 q5.5 41.5 9.5 83.5 q4 41 5.5 80.5 q1.5 39.5 1.5 68.5 q0 66 -8 116.5 q-8 50.5 -28 85.5 q-19 33 -47 49 q-28 16 -62 16 q-33 0 -61 -14.5 q-28 -14.5 -66 -43.5 q-34 -26 -59 -42 q-25 -16 -50 -16 q-7 0 -25 3.5 q-18 3.5 -35 18.5 q-11 11 -17 25 q-6 14 -6 29 q0 27 18.5 57.5 q18.5 30.5 53.5 53.5 q33 23 78 35.5 q45 12.5 96 12.5 q87 0 160 -38.5 q73 -38.5 127 -116.5 q51 -75 78.5 -180.5 q27.5 -105.5 27.5 -243.5 q0 -167 -38.5 -308 q-38.5 -141 -104.5 -243 q-69 -106 -161 -163 q-92 -57 -198 -57 ZM543 31 q53 0 99 31.5 q46 31.5 81 97.5 q34 63 52 147 q18 84 18 176 q0 69 -10.5 114 q-10.5 45 -32.5 76 q-44 62 -122 62 q-53 0 -99 -31 q-46 -31 -81 -97 q-35 -66 -53 -151 q-18 -85 -18 -174 q0 -71 11 -116 q11 -45 32 -74 q22 -30 53.5 -45.5 q31.5 -15.5 69.5 -15.5 Z" /><glyph glyph-name="percent" unicode="%" d="M351 793 q-68 0 -126 24.5 q-58 24.5 -100 66.5 q-45 45 -68.5 103.5 q-23.5 58.5 -23.5 124.5 q0 71 25 129 q25 58 67 100 q42 42 100 66.5 q58 24.5 127 24.5 q64 0 123 -24 q58 -24 103 -69 q23 -23 41 -49.5 q18 -26.5 29 -53.5 q24 -59 24 -123 q0 -66 -24 -125 q-24 -59 -68 -103 q-42 -42 -101 -67 q-59 -25 -128 -25 ZM351 928 q37 0 71 13.5 q34 13.5 61 39.5 q23 23 38.5 56.5 q15.5 33.5 15.5 75.5 q0 76 -54 130 q-55 53 -130 53 q-77 0 -131 -52 q-25 -24 -39.5 -58 q-14.5 -34 -14.5 -74 q0 -79 53 -132 q22 -22 55 -37 q33 -15 75 -15 ZM42 560 l1150 436 l0 -113 l-1150 -430 l0 107 ZM879 0 q-136 0 -228 92 q-45 46 -67.5 103.5 q-22.5 57.5 -22.5 122.5 q0 71 25 129.5 q25 58.5 67 100.5 q42 42 100 66.5 q58 24.5 126 24.5 q65 0 122 -24 q57 -24 103 -70 q26 -26 43 -53 q17 -27 28 -52 q25 -57 25 -121 q0 -63 -22.5 -121 q-22.5 -58 -70.5 -106 q-47 -46 -104.5 -69 q-57.5 -23 -123.5 -23 ZM879 135 q77 0 131 54 q53 53 53 130 q0 77 -54 131 q-54 54 -130 54 q-77 0 -130 -53 q-53 -53 -53 -132 q0 -78 53 -131 q53 -53 130 -53 Z" /><glyph glyph-name="plus" unicode="+" d="M532 557 l-444 0 l0 170 l444 0 l0 444 l168 0 l0 -444 l445 0 l0 -170 l-445 0 l0 -444 l-168 0 l0 444 Z" /><glyph glyph-name="plusminus" unicode="±" d="M532 672 l-444 0 l0 170 l444 0 l0 329 l168 0 l0 -329 l445 0 l0 -170 l-445 0 l0 -332 l-168 0 l0 332 ZM88 170 l1057 0 l0 -170 l-1057 0 l0 170 Z" /><glyph glyph-name="product" unicode="&#x220f;" d="M152 1518 l929 0 l0 -1954 l-155 0 l0 1822 l-619 0 l0 -1822 l-155 0 l0 1954 Z" /><glyph glyph-name="summation" unicode="&#x2211;" d="M143 -344 l549 919 l-549 848 l0 95 l922 0 l0 -140 l-733 0 l522 -803 l-522 -874 l753 0 l0 -137 l-942 0 l0 92 Z" /><glyph glyph-name="uni222C" unicode="&#x222c;" d="M250 -388 q-40 0 -91 14 q-51 14 -96 43 l67 127 q28 -15 52.5 -24.5 q24.5 -9.5 44.5 -9.5 q19 0 34 9 q15 9 25.5 29 q10.5 20 16 52.5 q5.5 32.5 5.5 79.5 l1 1570 q0 49 15.5 101 q15.5 52 45.5 95 q30 43 75.5 71 q45.5 28 105.5 28 q40 0 91 -14 q51 -14 96 -43 l-67 -127 q-25 14 -49.5 24 q-24.5 10 -46.5 10 q-18 0 -33 -8.5 q-15 -8.5 -26.5 -28 q-11.5 -19.5 -17.5 -52.5 q-6 -33 -6 -81 l0 -1570 q0 -49 -15.5 -101.5 q-15.5 -52.5 -46 -95.5 q-30.5 -43 -75.5 -70.5 q-45 -27.5 -105 -27.5 ZM681 -388 q-40 0 -91 14 q-51 14 -96 43 l67 127 q28 -15 52.5 -24.5 q24.5 -9.5 45.5 -9.5 q19 0 34 9 q15 9 25.5 29 q10.5 20 16 52.5 q5.5 32.5 5.5 79.5 l0 1570 q0 49 15.5 101.5 q15.5 52.5 46 95.5 q30.5 43 75.5 70.5 q45 27.5 105 27.5 q40 0 91 -14 q51 -14 96 -43 l-67 -127 q-25 14 -49.5 24 q-24.5 10 -46.5 10 q-18 0 -33 -8.5 q-15 -8.5 -26 -28 q-11 -19.5 -17 -52.5 q-6 -33 -6 -81 l-1 -1570 q0 -49 -15.5 -101 q-15.5 -52 -45.5 -95 q-30 -43 -75.5 -71 q-45.5 -28 -105.5 -28 Z" /><glyph glyph-name="uni222D" unicode="&#x222d;" d="M178 -361 q-32 0 -60.5 7 q-28.5 7 -64.5 21 l36 142 q16 -7 39.5 -10.5 q23.5 -3.5 35.5 -3.5 q20 0 28 15.5 q8 15.5 8 62.5 l0 1629 q0 55 12 104 q12 49 37 85.5 q25 36.5 64 57.5 q39 21 94 21 q32 0 60.5 -7 q28.5 -7 64.5 -21 l-36 -142 q-18 8 -41 11 q-23 3 -34 3 q-21 0 -29 -15.5 q-8 -15.5 -8 -62.5 l0 -1629 q0 -56 -11.5 -105 q-11.5 -49 -36.5 -85 q-25 -36 -64 -57 q-39 -21 -94 -21 ZM503 -361 q-32 0 -60.5 7 q-28.5 7 -64.5 21 l36 142 q18 -8 41 -11 q23 -3 34 -3 q21 0 29 15.5 q8 15.5 8 62.5 l0 1629 q0 55 11.5 104 q11.5 49 36.5 85.5 q25 36.5 64 57.5 q39 21 94 21 q32 0 60.5 -7 q28.5 -7 64.5 -21 l-36 -142 q-16 7 -39.5 10.5 q-23.5 3.5 -35.5 3.5 q-20 0 -28 -15.5 q-8 -15.5 -8 -62.5 l0 -1629 q0 -56 -12 -105 q-12 -49 -37 -85 q-25 -36 -64 -57 q-39 -21 -94 -21 ZM827 -361 q-32 0 -60.5 7 q-28.5 7 -64.5 21 l36 142 q18 -8 41 -11 q23 -3 34 -3 q21 0 29 15.5 q8 15.5 8 62.5 l0 1629 q0 55 11.5 104 q11.5 49 36.5 85.5 q25 36.5 64 57.5 q39 21 94 21 q32 0 60.5 -7 q28.5 -7 64.5 -21 l-36 -142 q-16 7 -39.5 10.5 q-23.5 3.5 -35.5 3.5 q-20 0 -28 -15.5 q-8 -15.5 -8 -62.5 l0 -1629 q0 -56 -12 -105 q-12 -49 -37 -85 q-25 -36 -64 -57 q-39 -21 -94 -21 Z" /><glyph glyph-name="uni22EF" unicode="&#x22ef;" d="M110 490 q-30 0 -30 30 l0 245 q0 30 30 30 l192 0 q30 0 30 -30 l0 -245 q0 -30 -30 -30 l-192 0 ZM519 490 q-30 0 -30 30 l0 245 q0 30 30 30 l192 0 q30 0 30 -30 l0 -245 q0 -30 -30 -30 l-192 0 ZM929 490 q-30 0 -30 30 l0 245 q0 30 30 30 l192 0 q30 0 30 -30 l0 -245 q0 -30 -30 -30 l-192 0 Z" /><glyph glyph-name="uni2308" unicode="&#x2308;" d="M463 1556 l424 0 l0 -143 l-240 0 l0 -1683 l-184 0 l0 1826 Z" /><glyph glyph-name="uni2309" unicode="&#x2309;" d="M586 1413 l-240 0 l0 143 l424 0 l0 -1826 l-184 0 l0 1683 Z" /><glyph glyph-name="uni230A" unicode="&#x230a;" d="M463 1556 l184 0 l0 -1683 l240 0 l0 -143 l-424 0 l0 1826 Z" /><glyph glyph-name="uni230B" unicode="&#x230b;" d="M346 -127 l240 0 l0 1683 l184 0 l0 -1826 l-424 0 l0 143 Z" /><glyph glyph-name="arrowup" unicode="&#x2191;" d="M534 880 l-160 -160 l-90 90 l292 291 l82 0 l290 -291 l-90 -90 l-160 160 l0 -880 l-164 0 l0 880 Z" /><glyph glyph-name="arrowright" unicode="&#x2192;" d="M786 319 l160 160 l-880 0 l0 164 l880 0 l-160 160 l90 90 l291 -291 l0 -82 l-291 -291 l-90 90 Z" /><glyph glyph-name="arrowdown" unicode="&#x2193;" d="M284 291 l90 90 l160 -160 l0 880 l164 0 l0 -880 l160 160 l90 -90 l-290 -291 l-82 0 l-292 291 Z" /><glyph glyph-name="uni27BE" unicode="&#x27be;" d="M50 756 l612 0 q-32 51 -52.5 98.5 q-20.5 47.5 -34.5 90.5 l79 0 q5 -14 10.5 -29 q5.5 -15 12.5 -29 q44 -103 126 -202 l-753 0 l0 71 ZM782 285 q62 140 182 256 q14 14 35 30 q21 16 48 36 q-56 39 -83 66 q-120 115 -182 255 l-8 17 l82 0 q54 -115 161 -222 q32 -30 73 -59 q41 -29 93 -57 q-103 -56 -187.5 -137 q-84.5 -81 -139.5 -202 l-82 0 l8 17 ZM575 268 q14 45 34.5 91.5 q20.5 46.5 52.5 98.5 l-612 0 l0 71 l753 0 q-82 -99 -126 -202 q-7 -14 -12.5 -29 q-5.5 -15 -10.5 -30 l-79 0 Z" /><glyph glyph-name="block" unicode="&#x2588;" d="M358 1125 l517 0 l0 -1135 l-517 0 l0 1135 Z" /><glyph glyph-name="SF240000" unicode="&#x2551;" d="M376 1921 l160 0 l0 -2433 l-160 0 l0 2433 ZM696 1921 l160 0 l0 -2433 l-160 0 l0 2433 Z" /><glyph glyph-name="SF250000" unicode="&#x2557;" d="M696 790 l-716 0 l0 172 l876 0 l0 -1474 l-160 0 l0 1302 ZM376 446 l-396 0 l0 172 l556 0 l0 -1130 l-160 0 l0 958 Z" /><glyph glyph-name="SF260000" unicode="&#x255d;" d="M-20 618 l716 0 l0 1303 l160 0 l0 -1475 l-876 0 l0 172 ZM-20 962 l396 0 l0 959 l160 0 l0 -1131 l-556 0 l0 172 Z" /><glyph glyph-name="SF380000" unicode="&#x255a;" d="M376 1921 l160 0 l0 -1303 l717 0 l0 -172 l-877 0 l0 1475 ZM696 1921 l160 0 l0 -959 l397 0 l0 -172 l-557 0 l0 1131 Z" /><glyph glyph-name="SF390000" unicode="&#x2554;" d="M376 962 l877 0 l0 -172 l-717 0 l0 -1302 l-160 0 l0 1474 ZM696 618 l557 0 l0 -172 l-397 0 l0 -958 l-160 0 l0 1130 Z" /><glyph glyph-name="SF430000" unicode="&#x2550;" d="M-20 962 l1273 0 l0 -172 l-1273 0 l0 172 ZM-20 618 l1273 0 l0 -172 l-1273 0 l0 172 Z" /><glyph glyph-name="bar" unicode="|" d="M530 1565 l172 0 l0 -2048 l-172 0 l0 2048 Z" /><glyph glyph-name="at" unicode="@" d="M796 -319 q-164 0 -308.5 57 q-144.5 57 -251.5 175 q-101 112 -155 271 q-54 159 -54 363 q0 188 46.5 345 q46.5 157 140.5 272 q96 118 224 174.5 q128 56.5 271 56.5 q114 0 199.5 -34 q85.5 -34 145.5 -98 q60 -64 92 -155.5 q32 -91.5 32 -202.5 l0 -770 l-144 0 l0 111 q-37 -62 -102 -97 q-65 -34 -147 -34 q-80 0 -148.5 31 q-68.5 31 -119.5 89 q-48 54 -76.5 133 q-28.5 79 -28.5 178 q0 91 26 169 q26 78 79 139 q55 63 123.5 92 q68.5 29 141.5 29 q42 0 78.5 -9 q36.5 -9 70.5 -26 q67 -35 103 -96 l0 63 q0 78 -22.5 142.5 q-22.5 64.5 -64.5 109.5 q-42 46 -103.5 70 q-61.5 24 -141.5 24 q-112 0 -209.5 -47.5 q-97.5 -47.5 -170.5 -143.5 q-71 -93 -108.5 -222.5 q-37.5 -129.5 -37.5 -290.5 q0 -170 42 -303.5 q42 -133.5 122 -227.5 q78 -93 189.5 -143.5 q111.5 -50.5 248.5 -50.5 q29 0 56 2.5 q27 2.5 54 7.5 q27 5 54.5 12.5 q27.5 7.5 56.5 18.5 l48 -135 q-34 -14 -64 -22.5 q-30 -8.5 -60 -14.5 q-31 -6 -60 -9 q-29 -3 -67 -3 ZM803 260 q52 0 96 20 q44 20 76 58 q32 38 47.5 91 q15.5 53 15.5 116 q0 63 -16 116.5 q-16 53.5 -48 91.5 q-31 37 -75 56.5 q-44 19.5 -97 19.5 q-105 0 -170 -77 q-32 -38 -48.5 -89.5 q-16.5 -51.5 -16.5 -116.5 q0 -66 16.5 -118.5 q16.5 -52.5 48.5 -90.5 q65 -77 171 -77 Z" /><glyph glyph-name="ampersand" unicode="&amp;" d="M552 -30 q-107 0 -197.5 36.5 q-90.5 36.5 -156.5 99.5 q-64 61 -103 145.5 q-39 84.5 -39 187.5 q0 67 17.5 133.5 q17.5 66.5 52.5 125.5 q68 116 208 217 q-51 73 -74 141 q-24 69 -24 141 q0 79 26 136.5 q26 57.5 74 99.5 q99 87 272 87 q65 0 131 -12 q29 -5 63 -14 q34 -9 72 -21 l0 -183 q-29 20 -61 35 q-32 15 -61 23 q-62 18 -128 18 q-101 0 -156 -45 q-56 -45 -56 -124 q0 -58 29 -122 q14 -30 39 -71 q25 -41 67 -97 l416 -559 q38 49 58 124 q10 38 14.5 82.5 q4.5 44.5 4.5 92.5 q0 20 -0.5 45.5 q-0.5 25.5 -2.5 60.5 l-1 7 l164 0 l0 -39 q0 -162 -37 -282 q-18 -59 -46 -112 q-28 -53 -66 -98 l170 -229 l-213 0 l-78 109 q-40 -34 -83 -60 q-43 -26 -94 -44 q-42 -15 -93 -25 q-51 -10 -108 -10 ZM585 125 q25 0 46.5 3 q21.5 3 44.5 9 q49 13 90 35 q24 13 45 27 q11 7 16 10.5 q5 3.5 7.5 6 q2.5 2.5 4 3.5 q1.5 1 5.5 4 l-428 580 q-93 -75 -137 -154 q-46 -82 -46 -176 q0 -72 24.5 -135 q24.5 -63 74.5 -113 q47 -47 111.5 -73.5 q64.5 -26.5 141.5 -26.5 Z" /><glyph glyph-name="copyright" unicode="©" d="M616 125 q-66 0 -123 11.5 q-57 11.5 -111 34.5 q-54 23 -105 57 q-51 34 -96 79 q-44 44 -78 94.5 q-34 50.5 -57 105.5 q-23 54 -34.5 111 q-11.5 57 -11.5 123 q0 128 46 236 q23 54 57 104.5 q34 50.5 79 96.5 q43 44 92.5 78 q49.5 34 106.5 57 q109 45 235 45 q126 0 236 -45 q57 -23 107 -57.5 q50 -34.5 92 -77.5 q49 -50 82.5 -101.5 q33.5 -51.5 53.5 -99.5 q46 -108 46 -235 q0 -128 -45 -234 q-22 -52 -56.5 -104 q-34.5 -52 -79.5 -97 q-42 -42 -93 -77 q-51 -35 -108 -59 q-108 -46 -235 -46 ZM617 227 q104 0 195 38 q47 20 89.5 49 q42.5 29 77.5 64 q34 34 64.5 78 q30.5 44 49.5 90 q37 89 37 195 q0 54 -9.5 103 q-9.5 49 -28.5 95 q-38 92 -113 167 q-74 74 -165 112 q-90 37 -198 37 q-107 0 -196 -37 q-92 -38 -166 -112 q-76 -76 -113 -167 q-39 -93 -39 -197 q0 -54 9.5 -101.5 q9.5 -47.5 29.5 -94.5 q24 -57 54 -97.5 q30 -40.5 59 -69.5 q38 -38 78.5 -66 q40.5 -28 88.5 -48 q45 -19 93.5 -28.5 q48.5 -9.5 102.5 -9.5 ZM638 369 q-92 0 -163.5 26 q-71.5 26 -121.5 74 q-50 48 -76.5 117 q-26.5 69 -26.5 155 q0 85 26.5 155 q26.5 70 77.5 120 q50 48 122 74 q72 26 162 26 q30 0 59 -3 q29 -3 58 -8 q28 -5 53.5 -13 q25.5 -8 55.5 -21 l0 -108 q-59 29 -113 42 q-28 7 -56.5 10 q-28.5 3 -53.5 3 q-57 0 -105 -17.5 q-48 -17.5 -83 -55.5 q-32 -35 -50 -87.5 q-18 -52.5 -18 -118.5 q0 -63 17.5 -114.5 q17.5 -51.5 52.5 -86.5 q35 -35 84.5 -53 q49.5 -18 117.5 -18 q31 0 56 3.5 q25 3.5 50 9.5 q25 6 51 15.5 q26 9.5 50 22.5 l0 -104 q-26 -11 -53 -20 q-27 -9 -56 -14 q-29 -5 -57.5 -8 q-28.5 -3 -59.5 -3 Z" /><glyph glyph-name="asciicircum" unicode="^" d="M528 1493 l177 0 l456 -557 l-178 0 l-367 395 l-366 -395 l-178 0 l456 557 Z" /><glyph glyph-name="grave" unicode="`" d="M604 1262 l-325 376 l198 0 l281 -376 l-154 0 Z" /><glyph glyph-name="A" unicode="A" d="M494 1493 l245 0 l457 -1493 l-209 0 l-110 389 l-523 0 l-108 -389 l-209 0 l457 1493 ZM829 551 l-213 764 l-213 -764 l426 0 Z" /><glyph glyph-name="Alpha" unicode="&#x391;" d="M494 1493 l245 0 l457 -1493 l-209 0 l-110 389 l-523 0 l-108 -389 l-209 0 l457 1493 ZM829 551 l-213 764 l-213 -764 l426 0 Z" /><glyph glyph-name="Beta" unicode="&#x392;" d="M166 1493 l442 0 q114 0 203 -25 q89 -25 150 -74 q61 -49 92.5 -120 q31.5 -71 31.5 -164 q0 -134 -65.5 -212.5 q-65.5 -78.5 -196.5 -98.5 q73 -11 131 -42.5 q58 -31.5 98.5 -82 q40.5 -50.5 62.5 -118 q22 -67.5 22 -149.5 q0 -201 -132 -304 q-132 -103 -397 -103 l-442 0 l0 1493 ZM604 877 q144 0 210.5 55.5 q66.5 55.5 66.5 177.5 q0 58 -15 99 q-15 41 -48.5 67.5 q-33.5 26.5 -86 38.5 q-52.5 12 -127.5 12 l-235 0 l0 -450 l235 0 ZM608 166 q88 0 150 15 q62 15 101 46.5 q39 31.5 57 81.5 q18 50 18 120 q0 147 -78.5 215.5 q-78.5 68.5 -247.5 68.5 l-239 0 l0 -547 l239 0 Z" /><glyph glyph-name="Gamma" unicode="&#x393;" d="M215 1493 l924 0 l0 -170 l-721 0 l0 -1323 l-203 0 l0 1493 Z" /><glyph glyph-name="Epsilon" unicode="&#x395;" d="M197 1493 l886 0 l0 -170 l-684 0 l0 -442 l654 0 l0 -170 l-654 0 l0 -541 l703 0 l0 -170 l-905 0 l0 1493 Z" /><glyph glyph-name="Zeta" unicode="&#x396;" d="M110 154 l759 1169 l-737 0 l0 170 l969 0 l0 -154 l-780 -1169 l802 0 l0 -170 l-1013 0 l0 154 Z" /><glyph glyph-name="Eta" unicode="&#x397;" d="M137 1493 l203 0 l0 -612 l553 0 l0 612 l203 0 l0 -1493 l-203 0 l0 711 l-553 0 l0 -711 l-203 0 l0 1493 Z" /><glyph glyph-name="Theta" unicode="&#x398;" d="M615 -29 q-251 0 -374.5 190.5 q-123.5 190.5 -123.5 582.5 q0 392 123.5 584 q123.5 192 375.5 192 q253 0 376.5 -192 q123.5 -192 123.5 -583 q0 -390 -124 -582 q-124 -192 -377 -192 ZM616 135 q83 0 136.5 37 q53.5 37 85.5 105 q16 33 28.5 76.5 q12.5 43.5 21 101 q8.5 57.5 13 130 q4.5 72.5 4.5 162.5 q0 90 -4.5 161.5 q-4.5 71.5 -13.5 128.5 q-9 57 -21.5 100.5 q-12.5 43.5 -28.5 77.5 q-35 72 -88.5 106.5 q-53.5 34.5 -131.5 34.5 q-79 0 -133 -35 q-54 -35 -88 -107 q-68 -143 -68 -469 q0 -165 16.5 -280 q16.5 -115 51.5 -188 q33 -70 86.5 -106 q53.5 -36 133.5 -36 ZM417 881 l399 0 l0 -170 l-399 0 l0 170 Z" /><glyph glyph-name="Iota" unicode="&#x399;" d="M201 170 l313 0 l0 1153 l-313 0 l0 170 l829 0 l0 -170 l-313 0 l0 -1153 l313 0 l0 -170 l-829 0 l0 170 Z" /><glyph glyph-name="Kappa" unicode="&#x39a;" d="M137 1493 l203 0 l0 -664 l631 664 l237 0 l-581 -610 l598 -883 l-244 0 l-487 748 l-154 -164 l0 -584 l-203 0 l0 1493 Z" /><glyph glyph-name="Lambda" unicode="&#x39b;" d="M494 1493 l245 0 l457 -1493 l-209 0 l-371 1315 l-370 -1315 l-209 0 l457 1493 Z" /><glyph glyph-name="Mu" unicode="&#x39c;" d="M87 1493 l270 0 l258 -760 l260 760 l271 0 l0 -1493 l-187 0 l0 1319 l-266 -787 l-153 0 l-267 787 l0 -1319 l-186 0 l0 1493 Z" /><glyph glyph-name="Nu" unicode="&#x39d;" d="M139 1493 l256 0 l504 -1229 l0 1229 l195 0 l0 -1493 l-256 0 l-504 1229 l0 -1229 l-195 0 l0 1493 Z" /><glyph glyph-name="Xi" unicode="&#x39e;" d="M137 1493 l959 0 l0 -170 l-959 0 l0 170 ZM340 881 l553 0 l0 -170 l-553 0 l0 170 ZM137 170 l959 0 l0 -170 l-959 0 l0 170 Z" /><glyph glyph-name="Omicron" unicode="&#x39f;" d="M615 -29 q-251 0 -374.5 190.5 q-123.5 190.5 -123.5 582.5 q0 392 123.5 584 q123.5 192 375.5 192 q253 0 376.5 -192 q123.5 -192 123.5 -583 q0 -390 -124 -582 q-124 -192 -377 -192 ZM616 135 q83 0 136.5 37 q53.5 37 85.5 105 q16 33 28.5 76.5 q12.5 43.5 21 101 q8.5 57.5 13 130 q4.5 72.5 4.5 162.5 q0 90 -4.5 161.5 q-4.5 71.5 -13.5 128.5 q-9 57 -21.5 100.5 q-12.5 43.5 -28.5 77.5 q-35 72 -88.5 106.5 q-53.5 34.5 -131.5 34.5 q-79 0 -133 -35 q-54 -35 -88 -107 q-68 -143 -68 -469 q0 -165 16.5 -280 q16.5 -115 51.5 -188 q33 -70 86.5 -106 q53.5 -36 133.5 -36 Z" /><glyph glyph-name="Pi" unicode="&#x3a0;" d="M137 1493 l959 0 l0 -1493 l-203 0 l0 1323 l-553 0 l0 -1323 l-203 0 l0 1493 Z" /><glyph glyph-name="Rho" unicode="&#x3a1;" d="M172 1493 l436 0 q251 0 379.5 -112.5 q128.5 -112.5 128.5 -334.5 q0 -221 -127.5 -333.5 q-127.5 -112.5 -380.5 -112.5 l-234 0 l0 -600 l-202 0 l0 1493 ZM608 766 q141 0 219 73.5 q78 73.5 78 207.5 q0 134 -77.5 207 q-77.5 73 -219.5 73 l-234 0 l0 -561 l234 0 Z" /><glyph glyph-name="Sigma" unicode="&#x3a3;" d="M120 170 l454 577 l-454 576 l0 170 l1013 0 l0 -170 l-802 0 l455 -576 l-455 -577 l802 0 l0 -170 l-1013 0 l0 170 Z" /><glyph glyph-name="Tau" unicode="&#x3a4;" d="M516 1323 l-469 0 l0 170 l1139 0 l0 -170 l-467 0 l0 -1323 l-203 0 l0 1323 Z" /><glyph glyph-name="Upsilon" unicode="&#x3a5;" d="M504 650 q0 60 -8.5 126.5 q-8.5 66.5 -24 133 q-15.5 66.5 -36.5 128.5 q-21 62 -47 114 q-26 52 -56 90 q-30 38 -62 55 q-13 7 -32 13.5 q-19 6.5 -40 11 q-21 4.5 -43.5 7.5 q-22.5 3 -42.5 3 q-17 0 -37.5 -2 q-20.5 -2 -40.5 -7 l0 170 q18 6 40 8.5 q22 2.5 46 2.5 q31 0 69.5 -3.5 q38.5 -3.5 71.5 -10.5 q68 -14 123 -46.5 q55 -32.5 97.5 -86.5 q42.5 -54 73.5 -131.5 q31 -77.5 51 -181.5 q60 204 146.5 312 q86.5 108 196.5 134 q20 5 34.5 6 q14.5 1 24.5 1 q39 0 75.5 -12 q36.5 -12 64.5 -35 q28 -23 44.5 -56.5 q16.5 -33.5 16.5 -75.5 q0 -17 -3.5 -43 q-3.5 -26 -14.5 -51 q-17 -38 -44.5 -52.5 q-27.5 -14.5 -56.5 -14.5 q-26 0 -50.5 9 q-24.5 9 -45 27 q-20.5 18 -35 44 q-14.5 26 -18.5 60 q-38 -26 -70 -69 q-32 -43 -58 -96.5 q-26 -53.5 -45.5 -115 q-19.5 -61.5 -33 -124.5 q-13.5 -63 -20.5 -125 q-7 -62 -7 -117 l0 -650 l-203 0 l0 650 Z" /><glyph glyph-name="Phi" unicode="&#x3a6;" d="M368 170 l147 0 l0 116 q-89 9 -162 38 q-73 29 -125 83.5 q-52 54.5 -81 137.5 q-29 83 -29 200 q0 117 29 200 q29 83 81.5 138 q52.5 55 125.5 84 q73 29 161 38 l0 118 l-147 0 l0 170 l497 0 l0 -170 l-147 0 l0 -118 q88 -9 161 -38 q73 -29 125.5 -84 q52.5 -55 81.5 -138 q29 -83 29 -200 q0 -117 -29 -200 q-29 -83 -81 -137.5 q-52 -54.5 -125.5 -83.5 q-73.5 -29 -161.5 -38 l0 -116 l147 0 l0 -170 l-497 0 l0 170 ZM515 1029 q-77 -17 -118 -58 q-68 -68 -68 -226 q0 -157 68 -225 q41 -42 118 -58 l0 567 ZM718 462 q42 9 72 25 q30 16 47 33 q67 67 67 225 q0 159 -67 226 q-41 41 -119 58 l0 -567 Z" /><glyph glyph-name="Chi" unicode="&#x3a7;" d="M518 791 l-432 702 l217 0 l328 -563 l334 563 l217 0 l-447 -702 l479 -791 l-217 0 l-366 643 l-395 -643 l-218 0 l500 791 Z" /><glyph glyph-name="Psi" unicode="&#x3a8;" d="M367 170 l147 0 l0 214 q-177 32 -274 183 q-123 190 -123 583 l0 343 l203 0 l0 -343 q0 -173 20 -286 q20 -113 56 -183 q45 -87 118 -121 l0 933 l203 0 l0 -933 q73 33 119 121 q75 145 75 469 l0 343 l203 0 l0 -343 q0 -393 -123 -583 q-97 -151 -274 -183 l0 -214 l147 0 l0 -170 l-497 0 l0 170 Z" /><glyph glyph-name="uni03A9" unicode="&#x3a9;" d="M74 172 l245 0 q-122 132 -178 278 q-55 143 -55 333 q0 309 144 494 q71 91 166.5 137 q95.5 46 217.5 46 q125 0 221 -47 q96 -47 166 -136 q144 -183 144 -494 q0 -190 -55 -333 q-29 -75 -73.5 -143.5 q-44.5 -68.5 -105.5 -134.5 l248 0 l0 -172 l-463 0 l0 172 q120 76 187 241 q33 81 50 176 q17 95 17 201 q0 116 -21.5 210 q-21.5 94 -67.5 162 q-43 63 -105 97.5 q-62 34.5 -140 34.5 q-82 0 -142.5 -36 q-60.5 -36 -101.5 -96 q-44 -65 -66.5 -157 q-22.5 -92 -22.5 -215 q0 -106 17 -201 q17 -95 50 -176 q35 -85 82 -144.5 q47 -59.5 105 -96.5 l0 -172 l-463 0 l0 172 Z" /><glyph glyph-name="alpha" unicode="&#x3b1;" d="M508 -25 q-101 0 -182 39 q-81 39 -138 113 q-57 74 -87.5 181 q-30.5 107 -30.5 244 q0 153 36.5 265 q36.5 112 98.5 184.5 q62 72.5 143.5 108 q81.5 35.5 171.5 35.5 q68 0 126 -20 q58 -20 103 -59.5 q45 -39.5 75.5 -99.5 q30.5 -60 44.5 -139 l99 293 l164 0 l-205 -607 l40 -219 q4 -24 17 -49 q13 -25 30 -44.5 q17 -19.5 35.5 -32 q18.5 -12.5 34.5 -12.5 l88 0 l0 -156 l-110 0 q-47 0 -86.5 17 q-39.5 17 -70 46 q-30.5 29 -50.5 68 q-20 39 -29 83 q-23 -54 -50 -98 q-27 -44 -64 -75.5 q-37 -31.5 -87 -48.5 q-50 -17 -117 -17 ZM504 127 q63 0 114 53 q51 53 87 160 l61 181 l-44 231 q-12 65 -33.5 110.5 q-21.5 45.5 -49 74 q-27.5 28.5 -59.5 41.5 q-32 13 -65 13 q-49 0 -94 -27.5 q-45 -27.5 -80 -84.5 q-38 -63 -57.5 -149 q-19.5 -86 -19.5 -183 q0 -104 21 -183 q21 -79 55 -131.5 q34 -52.5 77 -79 q43 -26.5 87 -26.5 Z" /><glyph glyph-name="beta" unicode="&#x3b2;" d="M152 1113 q0 120 36 206.5 q36 86.5 95 142.5 q59 56 135 82.5 q76 26.5 156 26.5 q50 0 102 -10 q52 -10 100.5 -31.5 q48.5 -21.5 91.5 -54.5 q43 -33 75 -78.5 q32 -45.5 50.5 -103.5 q18.5 -58 18.5 -130 q0 -53 -10.5 -106 q-10.5 -53 -32 -100.5 q-21.5 -47.5 -54 -85.5 q-32.5 -38 -75.5 -61 q65 -13 117.5 -50.5 q52.5 -37.5 89 -90.5 q36.5 -53 56.5 -118.5 q20 -65.5 20 -133.5 q0 -94 -36.5 -174 q-36.5 -80 -101 -138.5 q-64.5 -58.5 -153.5 -91.5 q-89 -33 -194 -34 q-37 0 -71.5 4.5 q-34.5 4.5 -70 15 q-35.5 10.5 -74.5 27.5 q-39 17 -85 43 l0 -495 l-185 0 l0 1539 ZM337 342 q20 -35 56 -65 q36 -30 81 -52 q45 -22 95.5 -34.5 q50.5 -12.5 100.5 -12.5 q52 0 99.5 15 q47.5 15 84 47 q36.5 32 58 81.5 q21.5 49.5 21.5 118.5 q0 138 -96.5 205 q-96.5 67 -295.5 67 q-21 0 -38 -0.5 q-17 -0.5 -34 -1.5 l0 170 q88 -3 156 16 q68 19 114 55.5 q46 36.5 69.5 88.5 q23.5 52 23.5 114 q0 65 -23.5 108.5 q-23.5 43.5 -59 70 q-35.5 26.5 -78.5 37.5 q-43 11 -82 11 q-48 0 -93 -15.5 q-45 -15.5 -80.5 -48.5 q-35.5 -33 -57 -85 q-21.5 -52 -21.5 -125 l0 -765 Z" /><glyph glyph-name="gamma" unicode="&#x3b3;" d="M556 0 l-302 836 q-45 126 -139 126 l-49 0 l0 158 l70 0 q194 0 259 -176 l255 -685 l326 861 l191 0 l-421 -1120 l0 -426 l-190 0 l0 426 Z" /><glyph glyph-name="delta" unicode="&#x3b4;" d="M617 -29 q-235 0 -357.5 149.5 q-122.5 149.5 -122.5 438.5 q0 151 32.5 259 q32.5 108 90.5 178 q14 17 33 35.5 q19 18.5 41 35.5 q-8 3 -25 17.5 q-17 14.5 -34 31.5 q-34 35 -48 72 q-14 37 -14 81 q0 68 30 123.5 q30 55.5 87.5 94.5 q57.5 39 140 60.5 q82.5 21.5 187.5 21.5 q38 0 77 -3 q39 -3 64 -9 l151 -36 l0 -173 q-66 24 -144 40 q-78 16 -159 14 l-32 -1 q-35 -1 -67.5 -11 q-32.5 -10 -65.5 -34 l-39 -28 q-27 -24 -27 -71 q0 -32 15 -53.5 q15 -21.5 56 -42.5 q18 -8 46 -10.5 q28 -2.5 83 -3.5 q241 -7 360.5 -154 q119.5 -147 119.5 -432 q0 -291 -122 -440.5 q-122 -149.5 -357 -149.5 ZM616 127 q142 0 213.5 109 q71.5 109 71.5 323 q0 215 -71.5 323.5 q-71.5 108.5 -213.5 108.5 q-141 0 -212.5 -108.5 q-71.5 -108.5 -71.5 -323.5 q0 -214 71.5 -323 q71.5 -109 212.5 -109 Z" /><glyph glyph-name="epsilon" unicode="&#x3b5;" d="M693 -22 q-125 0 -222 24 q-97 24 -164.5 68.5 q-67.5 44.5 -102.5 108 q-35 63.5 -35 142.5 q0 59 19.5 107 q19.5 48 56 84 q36.5 36 88 59.5 q51.5 23.5 116.5 35.5 q-120 25 -184 89 q-64 64 -64 160 q0 67 31.5 120.5 q31.5 53.5 90.5 91.5 q59 38 143 58.5 q84 20.5 189 20.5 q158 0 368 -48 l0 -167 q-105 27 -191 39.5 q-86 12.5 -158 12.5 q-142 0 -216 -42.5 q-74 -42.5 -74 -111.5 q0 -68 71.5 -111 q71.5 -43 207.5 -43 l166 0 l0 -144 l-159 0 q-75 0 -134 -14 q-59 -14 -100 -40 q-41 -26 -62.5 -62.5 q-21.5 -36.5 -21.5 -81.5 q0 -91 90 -143.5 q90 -52.5 265 -52.5 q99 0 189 17.5 q90 17.5 168 51.5 l0 -173 q-97 -28 -187 -42 q-90 -14 -184 -14 Z" /><glyph glyph-name="zeta" unicode="&#x3b6;" d="M738 -279 q26 -2 51.5 4.5 q25.5 6.5 46 22 q20.5 15.5 33 40 q12.5 24.5 12.5 58.5 q0 48 -29 81 q-29 33 -92 44 q-30 6 -86.5 12 q-56.5 6 -124 23 q-67.5 17 -137.5 48.5 q-70 31.5 -127.5 88.5 q-57.5 57 -94 143 q-36.5 86 -36.5 212 q0 117 35 234.5 q35 117.5 106 230 q71 112.5 178 216.5 q107 104 251 192 l-532 0 l0 185 l870 0 l0 -185 q-362 -195 -544.5 -390 q-182.5 -195 -182.5 -396 q0 -27 3 -51 q10 -94 35 -160 q25 -66 58.5 -110 q33.5 -44 74.5 -70 q41 -26 84.5 -40 q43.5 -14 87 -19 q43.5 -5 82.5 -8 q141 -11 218 -79 q77 -68 77 -192 q0 -59 -19 -111 q-19 -52 -58 -91 q-39 -39 -99 -61.5 q-60 -22.5 -141 -22.5 l0 151 Z" /><glyph glyph-name="eta" unicode="&#x3b7;" d="M866 694 q0 151 -52.5 222 q-52.5 71 -165.5 71 q-131 0 -200 -91 q-69 -91 -69 -263 l0 -633 l-184 0 l0 1120 l166 0 l18 -168 q49 97 133 146 q84 49 199 49 q172 0 256 -112 q84 -112 84 -341 l0 -1120 l-185 0 l0 1120 Z" /><glyph glyph-name="theta" unicode="&#x3b8;" d="M616 -29 q-117 0 -206 49.5 q-89 49.5 -150 146 q-61 96.5 -92 239 q-31 142.5 -31 329.5 q0 186 31 329 q31 143 92 240 q61 97 150 146.5 q89 49.5 206 49.5 q117 0 206.5 -49.5 q89.5 -49.5 150 -146.5 q60.5 -97 92 -240 q31.5 -143 31.5 -330 q0 -372 -123 -567.5 q-123 -195.5 -357 -195.5 ZM899 828 q-3 113 -21.5 207.5 q-18.5 94.5 -53 162.5 q-34.5 68 -86.5 106 q-52 38 -122 38 q-70 0 -121.5 -38 q-51.5 -38 -86 -106 q-34.5 -68 -53 -162.5 q-18.5 -94.5 -21.5 -207.5 l565 0 ZM616 129 q70 0 122 38.5 q52 38.5 87 107 q35 68.5 53 163 q18 94.5 21 206.5 l-565 0 q3 -112 21 -206.5 q18 -94.5 52.5 -163 q34.5 -68.5 86.5 -107 q52 -38.5 122 -38.5 Z" /><glyph glyph-name="iota" unicode="&#x3b9;" d="M864 -8 q-94 0 -159 25.5 q-65 25.5 -103 70.5 q-41 49 -61.5 128 q-20.5 79 -20.5 182 l0 579 l-210 0 l0 143 l398 0 l0 -733 q0 -72 7.5 -118.5 q7.5 -46.5 27.5 -73.5 q20 -27 54.5 -37 q34.5 -10 88.5 -10 l89 0 l0 -156 l-111 0 l0 0 Z" /><glyph glyph-name="kappa" unicode="&#x3ba;" d="M186 1120 l190 0 l0 -465 l483 465 l224 0 l-441 -422 l510 -698 l-225 0 l-414 578 l-137 -129 l0 -449 l-190 0 l0 1120 Z" /><glyph glyph-name="lambda" unicode="&#x3bb;" d="M559 1074 l-74 198 q-25 67 -75 96.5 q-50 29.5 -126 29.5 l-49 0 l0 158 l70 -2 q133 -4 219 -45 q86 -41 118 -128 l516 -1381 l-195 0 l-314 828 l-386 -828 l-195 0 l491 1074 Z" /><glyph glyph-name="nu" unicode="&#x3bd;" d="M116 1120 l198 0 l289 -940 q63 64 117.5 137 q54.5 73 95 145.5 q40.5 72.5 64 139 q23.5 66.5 23.5 119.5 q0 24 -5.5 64 q-5.5 40 -16.5 85 q-8 29 -18.5 57.5 q-10.5 28.5 -26 59 q-15.5 30.5 -37.5 63.5 q-22 33 -52 70 l186 0 q33 -44 62 -96.5 q29 -52.5 50 -107.5 q21 -55 33 -109 q12 -54 12 -100 q0 -61 -21 -126.5 q-21 -65.5 -55.5 -131.5 q-34.5 -66 -79.5 -130 q-45 -64 -93.5 -122 q-48.5 -58 -97 -108.5 q-48.5 -50.5 -89.5 -88.5 l-196 0 l-342 1120 Z" /><glyph glyph-name="xi" unicode="&#x3be;" d="M763 -279 q31 -2 57.5 6 q26.5 8 45.5 24.5 q19 16.5 29.5 40 q10.5 23.5 10.5 52.5 q0 46 -29 82 q-29 36 -92 45 q-28 4 -85 8 q-57 4 -126.5 15.5 q-69.5 11.5 -143 34.5 q-73.5 23 -133.5 65.5 q-60 42.5 -98.5 107 q-38.5 64.5 -38.5 160.5 q0 71 23 137.5 q23 66.5 66.5 123.5 q43.5 57 105.5 101.5 q62 44.5 140 71.5 q-141 17 -210.5 93 q-69.5 76 -69.5 196 q0 106 53.5 174.5 q53.5 68.5 166.5 111.5 l-208 0 l0 185 l789 0 l0 -185 q-158 0 -275.5 -19 q-117.5 -19 -196.5 -54.5 q-79 -35.5 -118 -86.5 q-39 -51 -39 -115 q0 -56 30.5 -95 q30.5 -39 95 -65 q64.5 -26 164 -39.5 q99.5 -13.5 238.5 -16.5 l0 -170 q-147 -11 -254 -41 q-107 -30 -176.5 -75 q-69.5 -45 -103.5 -101 q-34 -56 -34 -117 q0 -53 22.5 -90.5 q22.5 -37.5 59 -63 q36.5 -25.5 83 -41.5 q46.5 -16 95 -26.5 q48.5 -10.5 95 -16.5 q46.5 -6 83.5 -11 q82 -12 138.5 -34 q56.5 -22 91 -54.5 q34.5 -32.5 50 -76 q15.5 -43.5 15.5 -99.5 q0 -64 -19 -117.5 q-19 -53.5 -58 -92.5 q-39 -39 -99 -61 q-60 -22 -141 -22 l0 151 Z" /><glyph glyph-name="omicron" unicode="&#x3bf;" d="M616 -29 q-235 0 -357 149.5 q-122 149.5 -122 437.5 q0 143 31 253 q31 110 92 184.5 q61 74.5 150 113 q89 38.5 206 38.5 q117 0 206.5 -38.5 q89.5 -38.5 150 -113 q60.5 -74.5 92 -184.5 q31.5 -110 31.5 -253 q0 -286 -123 -436.5 q-123 -150.5 -357 -150.5 ZM616 127 q142 0 213.5 109 q71.5 109 71.5 323 q0 215 -71.5 323.5 q-71.5 108.5 -213.5 108.5 q-141 0 -212.5 -108.5 q-71.5 -108.5 -71.5 -323.5 q0 -214 71.5 -323 q71.5 -109 212.5 -109 Z" /><glyph glyph-name="pi" unicode="&#x3c0;" d="M1037 -39 q-114 0 -160 66 q-23 32 -34.5 90 q-11.5 58 -11.5 151 l0 684 l-428 0 l0 -952 l-180 0 l0 952 l-143 0 l0 148 l1073 0 l0 -148 l-141 0 l0 -704 q0 -35 5.5 -60.5 q5.5 -25.5 19.5 -42.5 q12 -16 30 -24 q18 -8 45 -8 q18 0 41 3 q10 1 14.5 1.5 q4.5 0.5 6.5 0.5 q2 0 3.5 0 q1.5 0 4.5 1 l0 -133 q-32 -13 -72 -19 q-38 -6 -73 -6 Z" /><glyph glyph-name="rho" unicode="&#x3c1;" d="M180 540 q0 158 31 272.5 q31 114.5 89.5 189 q58.5 74.5 142.5 110 q84 35.5 190 35.5 q116 0 203.5 -40.5 q87.5 -40.5 145.5 -116.5 q58 -76 87 -184 q29 -108 29 -244 q0 -140 -30 -250 q-30 -110 -86 -185.5 q-56 -75.5 -136 -115.5 q-80 -40 -180 -40 q-105 0 -180.5 43 q-75.5 43 -120.5 127 l0 -567 l-185 0 l0 966 ZM637 127 q134 0 201 108.5 q67 108.5 67 323.5 q0 215 -67 323.5 q-67 108.5 -201 108.5 q-135 0 -203.5 -109 q-68.5 -109 -68.5 -323 q0 -214 68.5 -323 q68.5 -109 203.5 -109 Z" /><glyph glyph-name="sigma1" unicode="&#x3c2;" d="M696 -279 q31 -2 57 6 q26 8 45 24 q19 16 30 40 q11 24 11 54 q0 44 -27 79.5 q-27 35.5 -94 46.5 q-27 4 -78.5 9.5 q-51.5 5.5 -113 22.5 q-61.5 17 -125.5 52 q-64 35 -116.5 97.5 q-52.5 62.5 -86 158.5 q-33.5 96 -33.5 236 q0 143 37.5 255 q37.5 112 108 188.5 q70.5 76.5 171.5 116.5 q101 40 229 40 q88 0 164 -20.5 q76 -20.5 156 -65.5 l0 -193 q-69 62 -142 92.5 q-73 30.5 -166 30.5 q-179 0 -271.5 -112.5 q-92.5 -112.5 -92.5 -321.5 q0 -101 20 -172 q20 -71 52 -118.5 q32 -47.5 72 -74.5 q40 -27 80 -41 q40 -14 75.5 -18.5 q35.5 -4.5 59.5 -5.5 q148 -10 221.5 -84 q73.5 -74 73.5 -189 q0 -59 -19 -110.5 q-19 -51.5 -58 -90 q-39 -38.5 -99 -61 q-60 -22.5 -141 -22.5 l0 151 Z" /><glyph glyph-name="sigma" unicode="&#x3c3;" d="M589 -29 q-111 0 -198 38 q-87 38 -147.5 112 q-60.5 74 -92.5 182.5 q-32 108.5 -32 250.5 q0 135 29.5 240.5 q29.5 105.5 89.5 177.5 q60 72 150 110 q90 38 210 38 l515 0 l0 -184 l-241 0 q206 -162 206 -443 q0 -114 -34 -210 q-34 -96 -97 -165.5 q-63 -69.5 -153.5 -108 q-90.5 -38.5 -204.5 -38.5 ZM594 127 q72 0 126 29 q54 29 90.5 79 q36.5 50 54.5 117.5 q18 67.5 18 145.5 q0 123 -43.5 215.5 q-43.5 92.5 -128.5 156.5 q-28 21 -59 38 q-31 17 -61 27 q-68 0 -119.5 -19 q-51.5 -19 -86.5 -62.5 q-35 -43.5 -53 -115.5 q-18 -72 -18 -178 q0 -216 71.5 -324.5 q71.5 -108.5 208.5 -108.5 Z" /><glyph glyph-name="tau" unicode="&#x3c4;" d="M864 0 q-90 0 -155 23.5 q-65 23.5 -107 73 q-42 49.5 -62 126.5 q-20 77 -20 183 l0 530 l-360 0 l0 182 l914 0 l0 -182 l-366 0 l0 -541 q0 -145 34 -191 q36 -48 144 -48 l89 0 l0 -156 l-111 0 l0 0 Z" /><glyph glyph-name="upsilon" unicode="&#x3c5;" d="M595 0 q-83 0 -145.5 23.5 q-62.5 23.5 -104 73 q-41.5 49.5 -62.5 126 q-21 76.5 -21 183.5 l-1 571 l-210 0 l0 143 l399 0 l0 -725 q0 -63 6.5 -108 q6.5 -45 23.5 -74.5 q17 -29.5 47 -43 q30 -13.5 77 -13.5 q85 0 146.5 39.5 q61.5 39.5 102 106.5 q40.5 67 62 154.5 q21.5 87.5 27.5 183.5 q1 12 1.5 27 q0.5 15 0.5 31 q0 45 -7.5 95.5 q-7.5 50.5 -25.5 104 q-18 53.5 -48.5 109.5 q-30.5 56 -76.5 113 l186 0 q73 -94 115 -214.5 q42 -120.5 42 -260.5 q0 -77 -14 -154.5 q-14 -77.5 -42 -149 q-28 -71.5 -71.5 -134 q-43.5 -62.5 -103 -108.5 q-59.5 -46 -135 -72.5 q-75.5 -26.5 -168.5 -26.5 Z" /><glyph glyph-name="phi" unicode="&#x3c6;" d="M525 -25 q-99 0 -182 39 q-83 39 -142 114.5 q-59 75.5 -92 186.5 q-33 111 -33 255 q0 142 31 242.5 q31 100.5 84 166 q53 65.5 122.5 101 q69.5 35.5 146.5 48.5 l0 -163 q-64 -25 -114 -101 q-38 -58 -57 -133.5 q-19 -75.5 -19 -173.5 q0 -107 21 -185.5 q21 -78.5 56 -130.5 q35 -52 81 -77 q46 -25 97 -25 l0 687 q0 152 62.5 227 q62.5 75 175.5 75 q74 0 144.5 -33.5 q70.5 -33.5 126 -102.5 q55.5 -69 89.5 -175.5 q34 -106.5 34 -251.5 q0 -144 -34 -254 q-34 -110 -94 -184.5 q-60 -74.5 -142.5 -112.5 q-82.5 -38 -178.5 -38 l0 -402 l-183 0 l0 401 ZM708 140 q46 0 91.5 23.5 q45.5 23.5 82 74.5 q36.5 51 59 133 q22.5 82 22.5 199 q0 112 -21 186.5 q-21 74.5 -56 124.5 q-31 44 -64 67 q-33 23 -55 23 q-26 0 -42.5 -36.5 q-16.5 -36.5 -16.5 -108.5 l0 -686 Z" /><glyph glyph-name="chi" unicode="&#x3c7;" d="M524 351 l-183 485 q-47 126 -203 126 l-49 0 l0 158 l70 0 q126 0 207.5 -43 q81.5 -43 115.5 -133 l143 -380 l266 556 l191 0 l-373 -780 l182 -482 q46 -126 204 -126 l49 0 l0 -158 l-70 0 q-126 0 -208 43 q-82 43 -116 133 l-142 378 l-265 -554 l-191 0 l372 777 Z" /><glyph glyph-name="psi" unicode="&#x3c8;" d="M525 -25 q-72 0 -142.5 37.5 q-70.5 37.5 -126.5 103.5 q-56 66 -90.5 157 q-34.5 91 -34.5 199 l0 648 l185 0 l0 -641 q0 -89 21.5 -149 q21.5 -60 62.5 -104 q27 -29 59.5 -51.5 q32.5 -22.5 65.5 -34.5 l0 980 l183 0 l0 -980 q29 10 62.5 32 q33.5 22 62.5 54 q41 44 62.5 104 q21.5 60 21.5 149 l0 641 l185 0 l0 -648 q0 -108 -34.5 -199 q-34.5 -91 -90.5 -157 q-56 -66 -126.5 -103.5 q-70.5 -37.5 -142.5 -37.5 l0 -401 l-183 0 l0 401 Z" /><glyph glyph-name="omega" unicode="&#x3c9;" d="M369 -29 q-83 0 -140.5 38.5 q-57.5 38.5 -92.5 111 q-35 72.5 -50.5 176 q-15.5 103.5 -15.5 234.5 q0 87 7 161.5 q7 74.5 22.5 144 q15.5 69.5 40.5 138.5 q25 69 61 145 l190 0 q-34 -77 -58 -147.5 q-24 -70.5 -39 -142.5 q-15 -72 -22 -149.5 q-7 -77.5 -7 -168.5 q0 -193 30 -289 q30 -96 95 -96 q37 0 69.5 29.5 q32.5 29.5 47.5 83.5 q6 22 10.5 57.5 q4.5 35.5 8 90.5 q3.5 55 5 131.5 q1.5 76.5 1.5 179.5 l170 0 q0 -106 1.5 -181.5 q1.5 -75.5 4.5 -129 q3 -53.5 8 -88.5 q5 -35 12 -59 q14 -53 42 -83.5 q28 -30.5 62 -30.5 q22 0 41 12.5 q19 12.5 34 32.5 q15 20 26.5 45.5 q11.5 25.5 18.5 52.5 q3 14 6.5 33 q3.5 19 5.5 48 q2 29 3.5 71.5 q1.5 42.5 1.5 103.5 l0 32 q0 287 -126 562 l190 0 q36 -76 61 -145 q25 -69 40.5 -138.5 q15.5 -69.5 22.5 -144 q7 -74.5 7 -161.5 q0 -131 -15.5 -234.5 q-15.5 -103.5 -51 -176 q-35.5 -72.5 -92.5 -111 q-57 -38.5 -140 -38.5 q-51 0 -92.5 14 q-41.5 14 -72 38.5 q-30.5 24.5 -51.5 57 q-21 32.5 -32 69.5 q-11 -37 -32 -69.5 q-21 -32.5 -52 -57 q-31 -24.5 -72 -38.5 q-41 -14 -92 -14 Z" /><glyph glyph-name="guillemotleft" unicode="«" d="M79 559 l0 82 l469 418 l0 -191 l-301 -268 l301 -268 l0 -191 l-469 418 ZM533 559 l0 82 l469 418 l0 -191 l-301 -268 l301 -268 l0 -191 l-469 418 Z" /><glyph glyph-name="guillemotright" unicode="»" d="M231 332 l301 268 l-301 268 l0 191 l469 -418 l0 -82 l-469 -418 l0 191 ZM685 332 l301 268 l-301 268 l0 191 l469 -418 l0 -82 l-469 -418 l0 191 Z" /><glyph glyph-name="periodcentered" unicode="·" d="M616 576 q-68 0 -115 47 q-47 47 -47 122 q0 75 47 122 q47 47 115 47 q68 0 115 -47 q47 -47 47 -122 q0 -75 -47 -122 q-47 -47 -115 -47 Z" /></font>
</defs>
</svg>
