<?xml version="1.0" standalone="no"?><!DOCTYPE svg PUBLIC "-//W3C//DTD SVG 1.1//EN" "http://www.w3.org/Graphics/SVG/1.1/DTD/svg11.dtd" ><svg xmlns="http://www.w3.org/2000/svg"><metadata></metadata><defs><font id="Heiti TC Light; 7.1d1e1; 2011-10-14" horiz-adv-x="965"><font-face font-family="Heiti TC" font-weight="400" font-stretch="normal" units-per-em="1000" panose-1="3 0 5 0 0 0 0 0 0 0" ascent="1060" descent="-340" x-height="0" bbox="-164 -390 905 777" underline-thickness="50" underline-position="-100" unicode-range="U+0021-007e" /><missing-glyph horiz-adv-x="0"  /><glyph glyph-name="" unicode="!" d="M297 692 q0 -4 -16 -30 q-19 -27 -32 -85 q-31 -139 -31 -403 q0 -12 2 -22 l1 -22 q0 -10 -14 -19 q-14 -11 -25 -11 q-42 0 -42 92 q0 139 21 328 q20 183 49 204 q11 8 23 8 q16 0 41 -14 q23 -15 23 -26 ZM237 -54 q0 -25 -25 -45 q-28 -20 -56 -20 q-19 0 -38 16 q-18 17 -18 35 q0 27 24 45 q23 19 54 19 q23 0 41 -15 q18 -13 18 -35 Z" /><glyph glyph-name="" unicode="&quot;" d="M282 589 q-1 -47 -9 -82 q-9 -35 -29 -35 q-21 0 -24 23 q-1 8 -5 82 q-7 99 -7 110 q0 16 12 31 q12 14 29 14 q33 0 33 -59 l0 -84 ZM134 589 q-1 -47 -9 -82 q-9 -35 -29 -35 q-21 0 -24 23 q-1 8 -5 82 q-7 99 -7 110 q0 16 12 31 q12 14 29 14 q33 0 33 -59 l0 -84 Z" /><glyph glyph-name="" unicode="#" d="M650 455 q0 -42 -38 -42 l-100 -2 q-7 -56 -23 -220 l98 8 q15 0 25 -12 q10 -13 10 -28 q0 -45 -76 -45 l-66 0 q-10 -109 -10 -157 q0 -40 2 -49 l1 -16 q0 -22 -30 -22 q-49 0 -49 65 q0 39 13 175 l-164 -2 q-8 -80 -8 -126 q0 -26 2 -36 q0 -27 -12 -48 q-12 -21 -33 -21 q-28 0 -30 37 l0 21 q0 51 9 174 q-26 -2 -59 -2 q-34 0 -42 4 q-20 6 -20 33 q0 43 63 43 l65 -2 l19 221 q-32 -1 -84 -1 q-39 0 -39 41 q0 42 53 42 l80 -2 q0 17 14 123 q3 27 17 107 q25 25 47 25 q4 0 31 -11 q-2 -21 -11 -81 q-6 -33 -25 -162 l168 4 q26 217 34 231 q14 24 55 24 l13 -4 q9 -4 9 -8 l-12 -63 q-11 -65 -24 -179 l88 1 q39 0 39 -38 ZM438 410 l-167 -3 l-21 -222 l165 2 l23 223 Z" /><glyph glyph-name="" unicode="$" d="M559 177 q0 -47 -43 -92 q-40 -43 -103 -62 q-21 -7 -69 -14 q-2 -35 -3 -103 q-3 -35 -34 -35 q-33 0 -33 35 q0 71 2 106 q-69 3 -138 28 q-88 31 -88 79 q0 16 10 27 q9 12 22 12 q5 0 20 -10 q70 -55 178 -64 q2 41 13 155 q-190 40 -190 147 q0 62 54 122 q50 55 173 67 q6 50 27 145 q8 26 32 26 q12 0 25 -10 q10 -12 10 -24 q0 -7 -10 -54 q-9 -38 -16 -75 l68 1 q38 0 56 -5 q32 -9 32 -40 q0 -32 -28 -32 q-20 0 -34 2 l-35 2 q-17 0 -69 -4 l-19 -202 q190 -38 190 -128 ZM320 494 q-62 -11 -101 -33 q-49 -30 -49 -72 q0 -27 49 -48 q32 -16 82 -26 l19 179 ZM489 171 q0 28 -54 43 l-73 13 l-13 -142 q51 3 93 24 q47 24 47 62 Z" /><glyph glyph-name="" unicode="%" d="M692 685 q0 -10 -5 -20 q-38 -80 -126 -193 q-111 -143 -139 -186 q-35 -51 -185 -274 q-23 -38 -83 -134 q-14 -19 -30 -19 q-16 0 -28 12 q-12 12 -12 26 q0 24 121 203 q66 96 153 225 q37 56 109 154 q92 125 128 177 q-54 -27 -141 -27 q-94 0 -156 43 q52 -52 52 -120 q0 -77 -50 -135 q-51 -57 -125 -57 q-55 0 -91 48 q-34 44 -34 106 q0 83 40 147 q46 73 116 73 q32 0 116 -25 q80 -24 126 -24 q57 0 197 38 l10 1 q14 0 26 -12 q11 -13 11 -27 ZM741 96 q0 -79 -47 -146 q-51 -71 -122 -71 q-60 0 -102 48 q-44 47 -44 111 q0 85 38 151 q44 78 115 78 q73 0 119 -46 q43 -49 43 -125 ZM276 562 q0 97 -73 97 q-81 -39 -81 -147 q0 -29 12 -50 q15 -25 42 -25 q41 0 72 44 q28 40 28 81 ZM665 106 q0 84 -76 84 q-44 0 -70 -54 q-22 -43 -22 -93 q0 -33 19 -58 q22 -31 54 -31 q47 0 74 59 q21 45 21 93 Z" /><glyph glyph-name="" unicode="&amp;" d="M830 -90 q-15 -62 -52 -62 q-79 0 -227 113 q-124 -98 -261 -98 q-99 0 -165 43 q-75 50 -75 142 q0 70 56 139 q39 47 123 114 q-96 141 -96 248 q0 80 57 134 q58 55 138 55 q73 0 131 -53 q56 -53 56 -127 q0 -123 -180 -264 q110 -140 221 -236 q57 60 57 107 l-2 28 q-2 14 -2 29 q0 22 25 22 q27 0 33 -41 q4 -36 4 -52 q0 -49 -64 -134 q120 -89 223 -107 ZM444 546 q0 45 -34 81 q-35 35 -80 35 q-51 0 -86 -35 q-34 -34 -34 -87 q0 -67 83 -189 q72 57 97 84 q54 57 54 111 ZM494 9 q-130 122 -221 234 q-59 -51 -87 -86 q-43 -53 -43 -102 q0 -114 159 -114 q77 0 192 68 Z" /><glyph glyph-name="" unicode="&#39;" d="M134 589 q-1 -47 -9 -82 q-9 -35 -29 -35 q-21 0 -24 23 q-1 8 -5 82 q-7 99 -7 110 q0 16 12 31 q12 14 28 14 q34 0 34 -59 l0 -84 Z" /><glyph glyph-name="" unicode="(" d="M246 718 q0 -18 -29 -50 q-46 -53 -55 -110 q-25 -144 -25 -228 q0 -101 18 -226 q23 -159 63 -219 q3 -13 3 -29 q0 -36 -29 -36 q-8 0 -16 5 q-19 12 -44 74 q-19 47 -29 92 q-33 153 -33 308 q0 139 31 297 q33 173 97 173 q48 0 48 -51 Z" /><glyph glyph-name="" unicode=")" d="M226 299 q0 -155 -33 -308 q-8 -37 -29 -92 q-24 -60 -44 -74 q-10 -5 -16 -5 q-29 0 -29 36 q0 16 3 29 q39 60 63 219 q18 125 18 226 q0 75 -25 228 q-10 59 -55 110 q-29 30 -29 50 q0 51 48 51 q62 0 97 -173 q31 -166 31 -297 Z" /><glyph glyph-name="" unicode="*" d="M429 575 q-9 -16 -129 -67 q14 -22 39 -56 q51 -69 51 -90 q0 -11 -8 -19 q-9 -9 -19 -9 q-18 0 -26 11 q-30 40 -70 97 q4 -6 -29 38 q-47 -62 -77 -98 q-42 -49 -50 -49 q-12 0 -22 10 q-11 10 -11 22 q0 10 24 44 l70 99 q-48 22 -122 60 l0 4 q0 14 8 33 q9 25 20 25 l125 -63 q-1 32 -1 146 q0 9 12 18 q14 7 26 7 q21 0 24 -23 l0 -18 q0 -32 2 -56 l3 -71 q1 1 132 52 q29 -29 29 -43 l-1 -4 Z" /><glyph glyph-name="" unicode="+" d="M567 158 q0 -14 -9 -25 q-8 -11 -19 -11 q-13 0 -23 1 l-24 1 l-146 -1 l-1 -72 q0 -79 5 -98 l1 -7 q0 -61 -38 -61 q-15 0 -29 17 q-14 17 -14 34 l1 187 l-169 -1 q-52 0 -52 66 q0 16 11 16 q22 0 65 -3 q29 -2 66 -2 l79 0 l0 98 q0 31 3 104 q0 25 26 25 q62 0 62 -25 q0 -7 -6 -21 q-5 -12 -5 -21 q-5 -66 -5 -114 l0 -46 l192 1 q10 0 20 -13 q9 -15 9 -29 Z" /><glyph glyph-name="" unicode="," d="M224 -98 q0 -56 -31 -115 q-37 -64 -87 -64 q-23 4 -23 17 q0 7 4 12 q59 35 59 85 q0 28 -28 47 q-21 14 -33 23 q-15 15 -15 35 q0 24 22 39 q20 16 53 16 q33 0 56 -26 q23 -25 23 -69 Z" /><glyph glyph-name="" unicode="-" d="M335 160 q0 -13 -9 -25 q-10 -14 -19 -14 q-14 0 -49 3 q-36 3 -51 3 l-46 -1 q-9 0 -29 -3 q-13 -2 -29 -2 q-23 0 -38 19 q-15 18 -15 43 q0 17 15 17 q-11 0 49 -2 q30 -2 54 -2 l97 -1 q13 0 23 2 l24 1 q5 0 15 -13 q8 -14 8 -25 Z" /><glyph glyph-name="" unicode="." d="M213 -65 q0 -51 -70 -51 q-18 0 -50 21 q-23 14 -23 36 q0 21 20 35 q17 16 42 16 q81 0 81 -57 Z" /><glyph glyph-name="" unicode="/" d="M507 691 q0 -15 -17 -57 q-26 -60 -59 -122 q-46 -87 -63 -121 q-57 -116 -186 -361 q-72 -126 -101 -146 q-13 -8 -24 -8 q-22 0 -22 18 q0 12 39 81 q135 243 212 436 l70 166 q12 31 25 59 q15 35 30 57 q24 35 62 35 q34 0 34 -37 Z" /><glyph glyph-name="" unicode="0" d="M617 386 q0 -248 -101 -366 q-98 -112 -212 -112 q-125 0 -194 77 q-70 74 -70 223 q0 97 26 188 q29 104 82 173 q102 137 227 137 q121 0 191 -106 q51 -78 51 -214 ZM548 376 q0 108 -39 169 q-57 89 -152 89 q-80 0 -162 -124 q-31 -46 -53 -129 q-26 -88 -26 -167 q0 -106 41 -166 q49 -73 148 -73 q59 0 116 45 q127 100 127 356 Z" /><glyph glyph-name="" unicode="1" d="M435 680 q0 -26 -15 -92 q-47 -203 -47 -520 q0 -62 5 -97 q0 -5 4 -24 q3 -21 3 -29 q0 -7 -13 -15 q-17 -7 -27 -7 q-51 0 -51 59 q0 119 8 262 q8 162 37 341 l-74 -90 q0 -1 -43 -55 q-24 -28 -49 -28 q-22 0 -37 14 q-16 12 -16 30 q0 8 36 33 q42 29 159 183 q14 21 42 56 q20 23 31 23 q47 0 47 -44 Z" /><glyph glyph-name="" unicode="2" d="M611 -48 q0 -12 -9 -21 q-10 -8 -17 -8 q-24 0 -72 6 q-48 6 -72 6 q-108 0 -262 -23 q-4 0 -30 -7 q-20 -5 -31 -5 q-20 0 -36 13 q-15 14 -15 35 q0 25 24 52 q13 15 54 58 q52 44 215 215 q110 115 110 233 q0 60 -38 109 q-39 47 -95 47 q-83 0 -136 -97 q-10 -27 -35 -79 q-18 -22 -34 -22 q-16 0 -28 15 q-14 13 -14 32 q0 33 26 82 q25 47 49 71 q66 66 175 66 q77 0 141 -61 q63 -61 63 -148 q0 -155 -95 -258 l-149 -161 q-57 -63 -120 -120 q102 14 177 17 l91 3 q58 3 90 11 q24 4 28 4 q16 0 31 -20 q14 -20 14 -45 Z" /><glyph glyph-name="" unicode="3" d="M610 173 q0 -127 -96 -208 q-88 -73 -204 -73 q-40 0 -102 15 q-71 19 -103 38 q-42 24 -42 62 q0 41 35 41 q8 0 53 -27 q42 -26 59 -34 q49 -20 90 -20 q82 0 146 49 q72 57 72 151 q0 104 -133 142 q-33 9 -47 9 q-20 0 -56 -14 q-32 -14 -50 -14 q-17 0 -32 16 q-16 15 -16 34 q0 18 8 26 q14 14 49 14 l17 0 q24 0 39 5 q52 14 94 51 q56 50 56 117 q0 56 -42 83 q-33 21 -82 21 q-35 0 -109 -42 q-58 -33 -75 -33 q-12 0 -23 15 q-11 12 -11 31 q0 36 66 69 q67 32 131 32 q93 0 152 -38 q70 -47 70 -142 q0 -57 -24 -98 q-23 -41 -82 -81 q192 -49 192 -197 Z" /><glyph glyph-name="" unicode="4" d="M625 145 q0 -37 -31 -37 l-104 -3 l0 -78 q0 -20 6 -62 q6 -40 6 -62 q0 -37 -42 -37 q-49 0 -49 66 l3 64 q2 78 2 99 q-89 -17 -135 -28 q-111 -27 -134 -27 q-45 0 -75 26 q-35 26 -35 73 q0 45 54 127 q65 97 149 212 q115 160 149 211 q9 17 25 39 q14 17 35 17 q19 0 43 -13 q22 -14 22 -30 l-2 -41 q-4 -29 -4 -42 q-15 -255 -15 -365 l0 -82 q49 13 92 13 q40 0 40 -40 ZM432 635 q-133 -204 -203 -300 q-106 -145 -106 -194 q0 -26 34 -26 q52 0 259 48 l16 472 Z" /><glyph glyph-name="" unicode="5" d="M602 175 q0 -149 -90 -232 q-82 -75 -217 -75 q-34 0 -94 15 q-64 16 -91 29 q-42 21 -42 58 q0 41 33 41 q10 0 68 -34 q65 -38 128 -38 q89 0 152 57 q68 60 68 164 q0 72 -45 108 q-39 30 -102 30 q-70 0 -133 -22 q-7 -2 -42 -23 q-27 -15 -44 -15 q-10 0 -23 13 q-14 11 -14 20 q0 13 3 34 l5 33 q1 56 9 187 q6 128 19 162 q22 11 33 11 q21 0 39 -21 q111 0 196 25 l26 10 q19 8 25 8 q16 0 46 -19 q28 -19 28 -32 q0 -15 -10 -18 q-16 -7 -44 -10 q-14 -3 -47 -7 q-135 -25 -222 -32 q-6 -109 -21 -266 q109 37 173 37 q108 0 160 -41 q70 -59 70 -157 Z" /><glyph glyph-name="" unicode="6" d="M613 179 q0 -136 -96 -223 q-90 -81 -211 -81 q-121 0 -193 95 q-68 89 -68 235 q0 123 55 245 q53 118 139 201 q30 30 90 70 q43 29 69 29 q13 0 28 -15 q14 -17 14 -36 q0 -8 -9 -17 q-2 -2 -12 -4 q-5 -2 -30 -7 l-33 -17 q-68 -35 -132 -130 q-40 -59 -58 -109 q-21 -52 -39 -155 q102 147 260 147 q91 0 157 -60 q69 -64 69 -168 ZM535 189 q0 69 -49 115 q-46 40 -103 40 q-82 0 -154 -61 q-72 -61 -93 -152 q42 -201 177 -201 q86 0 155 77 q67 76 67 182 Z" /><glyph glyph-name="" unicode="7" d="M592 660 q0 -21 -29 -55 q-122 -144 -213 -535 q-18 -76 -18 -138 q0 -95 -44 -95 q-50 0 -50 86 q0 19 9 59 q42 194 91 316 q16 45 59 158 q31 83 71 154 q0 44 -39 44 q-60 0 -140 -15 l-85 -18 q-49 -10 -91 -10 q-22 0 -35 7 q-13 20 -13 38 q0 28 17 36 q8 5 163 23 q151 17 184 17 q52 0 96 -11 q67 -20 67 -61 Z" /><glyph glyph-name="" unicode="8" d="M608 127 q0 -128 -87 -190 q-73 -49 -191 -49 q-126 0 -203 60 q-77 59 -77 161 q0 74 68 145 q28 31 93 77 q-138 81 -138 188 q0 86 51 147 q64 76 187 76 q57 0 155 -40 q21 -6 56 -24 q17 -12 17 -28 q0 -8 -2 -24 q40 -15 40 -49 q0 -39 -72 -105 q-45 -42 -133 -117 q72 -25 114 -47 q122 -72 122 -181 ZM438 631 q-73 39 -137 39 q-72 0 -108 -44 q-32 -39 -32 -104 q0 -93 126 -141 l8 5 q54 35 173 170 q12 16 27 41 l-57 34 ZM528 112 q0 110 -239 188 q-39 -24 -88 -68 q-73 -66 -73 -126 q0 -73 58 -115 q58 -43 146 -43 q77 0 134 45 q62 47 62 119 Z" /><glyph glyph-name="" unicode="9" d="M595 597 q0 -6 -8 -22 q-9 -18 -9 -23 q-17 -59 -30 -208 q-9 -77 -31 -297 l-16 -146 q-6 -33 -40 -33 q-18 0 -32 7 q-12 9 -12 16 l6 44 q5 46 11 84 q5 60 29 243 q-116 -106 -218 -106 q-73 0 -125 58 q-57 62 -57 159 q0 145 97 254 q97 109 223 109 q39 0 81 -33 q39 -32 55 -82 q12 15 28 15 q13 0 31 -13 q17 -12 17 -26 ZM484 469 q0 63 -25 122 q-33 72 -89 72 q-82 0 -156 -101 q-75 -102 -75 -200 q0 -61 35 -99 q34 -40 80 -40 q60 0 120 44 q39 27 100 93 q10 103 10 109 Z" /><glyph glyph-name="" unicode=":" d="M213 345 q0 -51 -70 -51 q-19 0 -51 22 q-22 13 -22 35 q0 19 20 35 q19 16 42 16 q81 0 81 -57 ZM213 -65 q0 -51 -70 -51 q-19 0 -51 21 q-22 15 -22 36 q0 21 20 35 q17 16 42 16 q81 0 81 -57 Z" /><glyph glyph-name="" unicode=";" d="M213 345 q0 -51 -70 -51 q-19 0 -51 22 q-22 13 -22 35 q0 19 20 35 q19 16 42 16 q81 0 81 -57 ZM226 -100 q0 -56 -31 -115 q-37 -64 -87 -64 q-23 3 -23 16 q0 7 5 12 q21 13 40 38 q18 24 18 48 q0 29 -29 47 q-46 30 -46 58 q0 24 21 39 q20 16 54 16 q33 0 56 -26 q22 -25 22 -69 Z" /><glyph glyph-name="" unicode="&lt;" d="M488 -20 q0 -7 -19 -23 q-19 -15 -32 -15 q-20 0 -187 82 q-164 81 -187 105 l-5 5 q-8 7 -8 11 q0 13 18 23 l361 201 q10 5 23 5 q8 0 20 -20 q13 -26 13 -38 q0 -17 -307 -163 q151 -84 298 -146 q12 -18 12 -27 Z" /><glyph glyph-name="" unicode="=" d="M552 234 q-3 -28 -21 -28 q-17 0 -49 7 q-10 2 -52 8 l-29 1 l-222 -9 q-27 -2 -62 -7 q-20 -4 -26 -4 q-17 0 -32 29 q-9 15 -9 35 q0 10 9 13 q8 2 27 2 l324 4 q18 0 42 4 l19 2 q24 0 53 -20 q28 -22 28 -37 ZM552 54 q-3 -28 -21 -28 q-17 0 -49 7 q-10 2 -52 8 l-29 1 q-29 0 -112 -3 l-109 -6 q-28 -2 -63 -7 q-20 -4 -26 -4 q-17 0 -32 29 q-9 15 -9 35 q0 10 9 13 q8 2 27 2 q68 0 128 1 q108 3 196 3 q10 0 34 3 l27 3 q24 0 53 -20 q28 -22 28 -37 Z" /><glyph glyph-name="" unicode="&gt;" d="M488 145 q0 -3 -8 -11 l-5 -5 q-24 -24 -187 -105 q-167 -82 -187 -82 q-14 0 -32 15 q-19 15 -19 23 q0 8 13 27 q141 59 298 146 q-307 145 -307 163 q0 16 12 37 q11 21 20 21 q14 0 24 -5 l360 -201 q18 -10 18 -23 Z" /><glyph glyph-name="" unicode="?" d="M662 541 q0 -114 -140 -189 l-79 -40 q-46 -24 -64 -49 q-22 -29 -22 -80 q0 -7 3 -18 q3 -12 3 -15 q0 -19 -15 -37 q-16 -18 -34 -18 q-40 0 -40 82 q0 77 51 144 q28 37 71 58 l119 53 q68 39 68 101 q0 65 -53 98 q-43 27 -107 27 q-61 0 -139 -25 q-90 -30 -120 -75 q-9 -14 -15 -34 l-11 -34 q-12 -26 -49 -26 q-15 0 -27 15 q-12 15 -12 31 q0 31 22 60 q9 13 43 48 q115 121 299 121 q100 0 170 -47 q78 -54 78 -151 ZM391 -49 q0 -26 -26 -47 q-28 -20 -56 -20 q-20 0 -39 16 q-17 16 -17 37 q0 29 24 48 q23 19 54 19 q23 0 41 -15 q19 -16 19 -38 Z" /><glyph glyph-name="" unicode="@" d="M905 31 q0 -29 -76 -87 q-127 -94 -300 -94 q-220 0 -345 111 q-124 111 -124 310 q0 204 121 344 q127 148 319 148 q166 0 281 -101 q119 -107 119 -275 q0 -85 -36 -177 q-23 -59 -76 -105 q-52 -45 -105 -45 q-52 0 -80 25 q-29 23 -46 85 q-83 -89 -159 -89 q-65 0 -103 50 q-40 49 -40 117 q0 108 90 192 q83 77 179 77 q35 0 72 -35 q13 8 19 8 q16 0 29 -15 q14 -16 14 -31 q0 -32 -18 -95 q-19 -66 -19 -101 q0 -112 70 -112 q41 0 84 65 q50 77 50 186 q0 131 -104 220 q-99 81 -228 81 q-164 0 -266 -140 q-91 -127 -91 -300 q0 -148 111 -235 q112 -88 293 -88 q133 0 248 88 q54 42 78 72 q2 2 3 2 q9 0 23 -20 q13 -23 13 -36 ZM562 385 q-16 57 -45 57 q-19 0 -40 -7 q-75 -30 -114 -91 q-36 -57 -36 -129 q0 -27 23 -44 q22 -19 47 -19 q73 0 122 84 q42 71 43 149 Z" /><glyph glyph-name="" unicode="A" d="M629 -9 q0 -63 -48 -63 q-21 0 -39 15 q-18 15 -18 31 q0 15 8 40 q8 30 8 48 l-1 86 q-154 -42 -353 -54 q-18 -111 -18 -192 q0 -12 -12 -27 q-13 -13 -24 -13 q-15 0 -38 7 q-25 9 -25 23 q0 41 10 92 q2 17 22 108 q-45 3 -56 10 q-12 6 -20 35 l6 17 q9 25 34 25 q8 0 20 -3 l35 -11 q48 185 114 333 q102 233 200 233 q75 0 112 -126 q31 -110 62 -355 q21 -168 21 -259 ZM503 422 l-18 106 q-11 56 -31 103 q-7 18 -17 18 q-24 0 -64 -58 q-110 -164 -172 -429 q151 0 330 47 l-28 213 Z" /><glyph glyph-name="" unicode="B" d="M638 118 q0 -111 -80 -162 q-51 -31 -105 -42 q-42 -8 -111 -8 q-40 0 -100 9 q-53 8 -88 19 q-3 -33 -32 -33 q-27 0 -29 26 l-1 22 q-42 18 -42 39 q0 37 51 37 q16 163 16 277 l0 249 q-15 11 -15 19 q0 9 15 24 l2 69 l-5 47 q17 28 48 28 q32 0 32 -78 q126 81 212 81 q95 0 147 -57 q49 -55 49 -143 q0 -162 -170 -228 q98 -18 154 -74 q52 -52 52 -121 ZM526 543 q0 48 -31 87 q-35 41 -89 41 q-82 0 -212 -107 q0 -70 -4 -232 q170 15 251 63 q85 52 85 148 ZM560 105 q0 88 -87 130 q-67 31 -159 31 q-65 0 -127 1 q-1 -87 -12 -267 q19 -2 73 -13 q58 -10 95 -10 q107 0 166 37 q51 33 51 91 Z" /><glyph glyph-name="" unicode="C" d="M600 121 q0 -9 -6 -18 q-126 -209 -317 -209 q-57 0 -108 28 q-129 74 -129 260 q0 136 34 262 q38 152 118 232 q61 59 133 59 q54 0 109 -39 q45 -32 82 -81 q7 -12 7 -18 q0 -12 -13 -22 q-11 -10 -27 -10 q-22 0 -44 34 q-23 33 -54 58 q-28 20 -53 20 q-60 0 -118 -97 q-60 -103 -78 -257 q-9 -78 -9 -154 q0 -103 44 -157 q40 -49 99 -49 q58 0 124 39 q55 33 99 86 l36 49 q12 17 30 17 q13 0 28 -10 q13 -11 13 -23 Z" /><glyph glyph-name="" unicode="D" d="M628 403 q0 -518 -316 -518 q-59 0 -154 55 q0 -49 -38 -49 q-9 0 -24 12 q-15 12 -15 20 q8 206 8 355 q0 94 -8 216 q-14 15 -14 32 q0 9 9 25 l-4 36 q-4 15 -12 37 q-10 23 -10 37 q0 7 16 24 q15 18 22 18 q12 0 31 -8 q17 -9 19 -14 q2 -6 7 -43 q116 90 224 90 q114 0 187 -90 q72 -90 72 -235 ZM546 382 q0 109 -51 190 q-54 86 -135 86 q-44 0 -74 -11 q-28 -12 -59 -43 l-38 -40 q-8 -8 -14 -17 l-15 -21 q3 -138 3 -272 l0 -246 q17 -3 31 -12 l55 -37 q32 -16 66 -16 q101 0 164 107 q67 119 67 332 Z" /><glyph glyph-name="" unicode="E" d="M598 694 q0 -40 -28 -43 q-34 -1 -204 -11 q-83 -5 -164 -13 q-1 -128 -8 -272 q154 13 202 19 q65 7 76 7 q37 0 37 -38 q0 -36 -39 -39 l-281 -25 q-13 -178 -13 -213 q0 -95 147 -95 q38 0 114 13 q70 14 95 14 q19 0 40 -17 q22 -16 22 -31 q0 -28 -57 -37 q-120 -16 -199 -16 q-73 0 -133 20 q-76 27 -97 78 q-12 30 -12 80 q0 71 17 196 l-34 -2 q-29 0 -29 38 q0 11 10 22 q11 10 23 11 l12 0 q7 0 20 6 q9 224 9 278 q-41 12 -41 40 q0 20 13 27 q27 14 134 19 q60 2 196 10 q16 0 76 6 l61 4 q35 0 35 -36 Z" /><glyph glyph-name="" unicode="F" d="M538 680 q0 -37 -40 -43 q-47 -7 -122 -10 l-207 -11 q-7 -106 -7 -280 q84 4 184 14 q5 0 39 8 q23 6 39 6 q16 0 38 -17 q20 -17 20 -33 q0 -23 -61 -32 q-104 -17 -258 -26 l-1 -156 q0 -98 18 -151 q9 -27 9 -40 q0 -9 -15 -18 q-17 -10 -28 -10 q-58 0 -60 73 q-5 170 -5 308 q0 192 11 350 q-42 8 -42 47 q0 45 59 45 q96 0 304 18 q69 6 85 6 q40 0 40 -48 Z" /><glyph glyph-name="" unicode="G" d="M620 278 q0 -9 -10 -27 q-14 -22 -14 -31 q0 -17 -3 -43 q-6 -52 -6 -85 q0 -82 20 -162 q4 -22 4 -25 q0 -39 -39 -39 q-52 0 -52 122 q0 27 8 148 q-34 -100 -107 -171 q-74 -71 -144 -71 q-124 0 -185 79 q-52 68 -52 232 q0 163 83 332 q96 200 232 200 q60 0 119 -34 q56 -36 88 -93 q8 -16 8 -24 q0 -17 -12 -29 q-11 -11 -27 -11 q-21 0 -39 22 q-20 26 -29 39 q-46 60 -104 60 q-52 0 -103 -54 q-42 -45 -63 -99 q-61 -155 -61 -344 q0 -197 142 -197 q61 0 121 60 q50 50 79 120 q22 55 22 67 q-3 6 -26 18 q-39 -12 -64 -18 q-60 -15 -76 -15 q-55 0 -55 47 q0 7 13 21 q15 13 22 13 l38 0 q44 0 156 36 q17 5 45 15 q19 -2 45 -22 q26 -23 26 -37 Z" /><glyph glyph-name="" unicode="H" d="M643 686 q0 -6 -3 -15 q-19 -59 -20 -107 q-6 -142 -6 -289 q0 -113 6 -239 q2 -37 7 -68 q6 -37 6 -44 q0 -37 -34 -37 q-19 0 -36 10 q-17 12 -18 26 l-4 94 q-6 96 -6 235 q-48 -11 -173 -25 q-27 -4 -191 -17 q3 -63 9 -125 q6 -80 21 -140 l2 -12 q0 -14 -12 -25 q-13 -10 -28 -10 q-27 0 -38 27 q-14 35 -22 128 q-6 59 -9 154 l-34 0 q-13 0 -23 10 q-11 8 -11 22 q0 38 26 38 q12 0 40 3 l0 64 q0 218 27 302 q9 28 31 28 q18 0 37 -11 q18 -12 18 -27 l-1 -8 q-7 -31 -24 -125 q-14 -74 -14 -129 q0 -69 1 -93 q117 7 368 41 l4 142 q3 90 3 132 l-1 57 q0 34 6 49 q11 23 41 23 q20 0 38 -10 q17 -12 17 -29 Z" /><glyph glyph-name="" unicode="I" d="M175 -71 q0 -13 -15 -24 q-17 -10 -33 -10 q-17 0 -32 10 q-15 11 -15 24 q-1 9 -4 151 q-4 161 -4 245 q0 117 3 196 l6 93 q0 8 -5 31 q-6 18 -6 29 q0 14 14 22 q24 15 50 15 q14 0 26 -14 q13 -15 13 -28 q0 -15 -5 -45 q-8 -38 -8 -44 q-9 -79 -9 -219 q0 -77 3 -199 q0 -33 2 -97 q1 -57 11 -95 q8 -32 8 -41 Z" /><glyph glyph-name="" unicode="J" d="M562 658 q0 -24 -47 -30 q-41 -6 -94 -11 q0 -73 4 -237 l4 -263 q0 -225 -154 -225 q-30 0 -71 25 q-66 40 -131 139 q-18 27 -35 70 q-18 48 -18 73 q0 35 16 60 q15 26 44 26 q15 0 31 -16 q14 -16 14 -24 q0 -6 -3 -11 q-6 -8 -18 -22 q-10 -14 -10 -27 q0 -28 33 -85 q36 -63 82 -103 q43 -38 70 -38 q38 0 58 65 q13 49 13 101 q0 57 -10 482 q-89 -17 -121 -17 q-32 0 -47 11 q-33 21 -33 42 q0 8 14 12 q3 1 36 4 l147 11 q98 10 138 32 q17 9 27 9 q18 0 39 -18 q22 -20 22 -35 Z" /><glyph glyph-name="" unicode="K" d="M640 -61 q0 -34 -45 -34 q-22 0 -36 11 q-147 118 -325 348 q-55 -63 -96 -102 q9 -107 18 -148 q3 -11 18 -47 q11 -25 11 -33 q0 -36 -47 -36 q-31 0 -40 25 q-14 35 -26 141 q-12 108 -12 212 q0 113 30 371 q3 26 9 43 q11 34 46 34 q16 0 33 -17 q17 -19 17 -36 q0 -5 -13 -28 q-10 -14 -21 -40 q-27 -100 -27 -355 q40 50 166 201 q82 95 152 165 q42 40 61 40 q61 0 61 -54 q0 -3 -30 -23 q-30 -19 -47 -31 q-70 -58 -153 -150 l-70 -84 l11 -12 q37 -44 140 -156 q36 -40 99 -93 l103 -89 q13 -13 13 -23 Z" /><glyph glyph-name="" unicode="L" d="M494 -81 q0 -18 -51 -24 q-46 -4 -137 -4 q-161 0 -209 80 q-37 59 -37 247 q0 65 6 197 q6 129 6 196 q0 6 -4 42 q-4 24 -4 42 q0 32 60 32 q18 0 31 -16 q12 -18 12 -41 l-9 -124 q-19 -246 -19 -389 q0 -100 19 -138 q29 -64 118 -64 q56 0 96 9 q57 14 66 14 q21 0 39 -19 q17 -19 17 -40 Z" /><glyph glyph-name="" unicode="M" d="M740 -114 q0 -17 -34 -17 q-38 0 -50 39 q-17 48 -20 173 l0 185 q0 135 22 311 q-55 -117 -100 -246 q-8 -22 -67 -207 l-29 -87 q-22 -64 -32 -77 q-18 -24 -39 -24 q-16 0 -30 16 q-88 102 -153 309 q-34 105 -62 271 q-17 -132 -17 -243 q0 -219 11 -295 q0 -7 10 -40 q7 -28 7 -37 q0 -26 -53 -26 q-22 0 -30 23 q-8 21 -11 102 q-3 72 -3 182 q0 261 33 432 l1 5 l0 29 q0 31 38 31 q22 0 45 -10 q21 -12 25 -28 q2 -30 14 -117 q25 -180 77 -316 q34 -92 89 -186 q22 53 73 206 q56 172 92 261 q54 135 93 168 q16 13 59 13 q35 0 35 -19 q-3 -16 -6 -41 q-23 -152 -23 -293 l-1 -169 q0 -87 5 -150 q3 -50 19 -93 q2 -7 7 -20 q5 -13 5 -15 Z" /><glyph glyph-name="" unicode="N" d="M612 645 q0 -8 -7 -36 q-8 -26 -8 -36 q-3 -37 -3 -158 l-1 -279 q0 -149 -21 -199 q-12 -25 -36 -25 q-7 0 -17 5 q-51 29 -111 94 q-60 65 -99 131 q-97 161 -169 439 q-10 -143 -10 -324 q0 -150 2 -200 q0 -23 11 -76 q7 -40 7 -49 q0 -12 -16 -22 q-16 -9 -34 -9 q-34 0 -37 71 q-3 63 -3 197 q0 259 23 452 l0 36 q0 17 13 30 q12 12 30 12 q45 0 61 -39 l11 -34 q8 -27 15 -47 q18 -60 57 -175 q27 -76 41 -104 q87 -188 209 -287 q3 68 3 137 l-5 483 q0 55 49 55 q13 0 29 -15 q16 -16 16 -28 Z" /><glyph glyph-name="" unicode="O" d="M667 364 q0 -202 -85 -333 q-93 -140 -253 -140 q-126 0 -203 98 q-76 97 -76 267 q0 168 94 310 q108 165 279 165 q113 0 185 -137 q59 -115 59 -230 ZM591 345 q0 118 -54 217 q-54 98 -126 98 q-139 0 -220 -166 q-63 -130 -63 -269 q0 -92 47 -168 q57 -95 154 -95 q120 0 196 129 q66 113 66 254 Z" /><glyph glyph-name="" unicode="P" d="M586 424 q0 -136 -77 -218 q-78 -81 -215 -81 q-66 0 -157 41 q9 -134 27 -212 l15 -45 q0 -28 -43 -28 q-33 0 -39 25 q-37 124 -37 413 q0 54 12 165 q13 119 13 163 q0 7 -5 22 q-4 12 -4 21 q0 30 53 30 q31 0 40 -21 q0 -7 5 -29 l24 20 q54 31 130 31 q47 0 83 -12 q77 -27 128 -114 q47 -83 47 -171 ZM511 412 q0 122 -59 187 q-51 54 -128 54 q-73 0 -142 -81 q-27 -30 -42 -99 q-6 -82 -6 -156 l0 -69 q15 -12 33 -21 q59 -37 119 -37 q95 0 160 62 q65 62 65 160 Z" /><glyph glyph-name="" unicode="Q" d="M751 -131 q0 -22 -41 -22 q-49 0 -134 65 l-59 46 q-84 -66 -188 -66 q-136 0 -211 110 q-68 96 -68 246 q0 182 98 325 q108 158 275 158 q112 0 184 -132 q62 -115 62 -243 q0 -212 -105 -350 q21 -18 63 -51 q31 -21 71 -33 l11 2 q42 -10 42 -55 ZM592 336 q0 109 -47 209 q-54 113 -134 113 q-136 0 -216 -159 q-65 -129 -65 -281 q0 -94 52 -168 q59 -87 147 -87 q64 0 125 47 l-44 29 q-57 36 -57 58 q0 13 11 21 q9 9 25 9 q17 0 114 -70 q89 127 89 279 Z" /><glyph glyph-name="" unicode="R" d="M677 -79 q0 -19 -23 -44 q-9 -9 -23 -9 q-21 0 -67 44 q-18 17 -116 118 q-142 147 -220 184 q-19 -5 -58 -12 q5 -147 5 -193 q0 -21 11 -50 q12 -31 12 -41 q0 -29 -33 -29 q-63 0 -63 89 q0 82 -3 211 q-49 1 -49 37 q0 26 27 35 l20 5 q-3 122 -3 226 q0 56 7 113 q-49 1 -49 40 q0 33 66 39 q18 43 42 43 q37 0 40 -45 q93 17 148 17 q114 0 190 -42 q93 -51 93 -152 q0 -177 -311 -270 l74 -58 q38 -38 97 -93 q23 -26 86 -87 q41 -35 73 -48 l21 -8 q6 -3 6 -20 ZM547 515 q0 68 -71 100 q-53 22 -128 22 q-82 0 -172 -27 q-3 -18 -3 -32 q-6 -93 -6 -244 l1 -57 q78 12 126 24 q253 57 253 214 Z" /><glyph glyph-name="" unicode="S" d="M590 73 q0 -179 -289 -179 q-98 0 -177 59 q-74 55 -74 110 q0 14 12 26 q12 12 29 12 q14 0 32 -20 q29 -37 78 -90 q39 -31 107 -31 q56 0 119 22 q80 27 80 77 q0 56 -78 110 l-155 92 q-90 55 -131 105 q-56 65 -56 148 q0 111 72 168 q65 51 180 51 q52 0 98 -20 q44 -21 87 -65 q48 -51 48 -93 q0 -17 -12 -31 q-11 -14 -25 -14 q-32 0 -44 27 q-8 22 -25 62 q-36 69 -135 69 q-60 0 -103 -32 q-47 -37 -47 -101 q0 -126 133 -216 q25 -17 94 -56 q68 -39 92 -54 q90 -61 90 -136 Z" /><glyph glyph-name="" unicode="T" d="M623 689 q0 -24 -32 -30 q-48 -11 -105 -16 q-105 -12 -114 -12 q-21 -327 -21 -378 q0 -201 8 -269 q0 -10 9 -39 q6 -24 6 -39 q0 -33 -40 -33 q-19 0 -37 10 q-17 10 -20 25 q-12 57 -12 211 q0 195 30 504 q-63 -5 -182 -18 q-20 -4 -39 -4 q-16 0 -34 19 q-20 17 -20 34 q0 15 16 19 q2 1 29 4 l122 6 l175 12 q109 11 169 33 q24 9 35 9 q14 0 36 -17 q21 -18 21 -31 Z" /><glyph glyph-name="" unicode="U" d="M578 401 q0 -257 -47 -362 q-68 -149 -232 -149 q-130 0 -189 133 q-45 99 -45 264 l0 325 q0 8 -7 29 q-8 15 -8 24 q0 16 17 30 q18 13 35 13 q18 0 35 -14 q16 -16 16 -29 q0 -60 -3 -180 q-4 -108 -4 -181 q0 -185 40 -266 q39 -83 122 -83 q90 0 134 79 q32 58 44 182 q9 93 9 165 q0 69 -5 174 l-7 57 q-5 30 -5 58 q0 61 52 61 q45 0 45 -57 q0 -76 1 -137 l2 -136 Z" /><glyph glyph-name="" unicode="V" d="M600 689 q0 -12 -8 -38 q-18 -52 -20 -65 q-13 -63 -73 -305 q-81 -289 -149 -378 q-15 -18 -41 -18 q-30 0 -45 18 q-67 78 -136 367 q-26 126 -38 190 q-25 119 -51 181 q-9 21 -9 28 q0 12 19 24 q19 11 37 11 q29 0 40 -26 q5 -14 25 -120 q38 -213 61 -311 q48 -220 96 -275 q86 133 182 604 q11 57 11 106 q0 26 16 36 q13 8 34 8 q17 0 33 -12 q16 -13 16 -25 Z" /><glyph glyph-name="" unicode="W" d="M743 323 q0 -132 -11 -198 q-18 -112 -78 -177 q-41 -43 -91 -43 q-112 0 -163 298 q-27 -139 -54 -204 q-44 -100 -112 -100 q-100 0 -145 190 q-29 117 -29 274 q0 62 9 159 q10 116 26 146 q12 24 45 24 q14 0 32 -12 q18 -12 18 -23 q0 -3 -20 -38 q-16 -27 -27 -101 q-12 -79 -12 -162 q0 -121 20 -210 q8 -41 27 -85 q27 -66 49 -66 q43 0 74 91 q9 25 29 118 l28 140 q10 63 10 81 q0 11 -3 24 q-4 16 -4 19 q0 17 13 31 q12 15 29 15 q44 0 44 -55 l-1 -29 q-1 -13 -1 -27 q0 -40 2 -61 q3 -64 43 -197 q46 -155 87 -155 q52 0 79 145 q17 96 17 187 q0 57 -21 234 q-2 5 -9 55 q-5 28 -5 55 q0 17 12 30 q13 13 29 13 q50 0 50 -43 l-1 -23 q-1 -10 -1 -23 l0 -14 q16 -184 16 -283 Z" /><glyph glyph-name="" unicode="X" d="M653 -84 q0 -7 -11 -15 q-11 -8 -22 -8 q-87 0 -305 285 q-15 -24 -136 -186 q-21 -28 -66 -84 q-27 -29 -51 -29 q-17 0 -30 11 q-12 12 -12 27 q0 24 14 30 q12 6 39 24 q40 40 99 130 l92 149 q-59 85 -130 210 q-89 156 -89 204 q0 35 32 35 q36 0 61 -34 q12 -18 29 -57 l24 -60 q47 -111 117 -225 q102 174 192 382 q14 32 49 32 q18 0 40 -15 q22 -16 22 -28 q0 -17 -12 -37 l-23 -36 q-65 -120 -118 -215 q-55 -91 -99 -161 q173 -251 269 -305 q25 -14 25 -24 Z" /><glyph glyph-name="" unicode="Y" d="M553 643 q-40 -88 -106 -220 q-90 -176 -109 -219 l-179 -360 q-9 -15 -27 -15 q-19 0 -32 19 q-14 18 -14 42 q0 10 2 14 q5 17 42 79 l53 89 l65 121 q-80 121 -120 211 q-50 108 -76 226 l-12 29 q-10 20 -10 28 q0 13 17 24 q17 12 36 12 q17 0 33 -11 q15 -12 18 -27 q17 -92 23 -115 q14 -66 31 -111 q12 -34 41 -86 q16 -29 59 -100 q47 90 93 183 q56 112 82 187 q15 45 30 71 q8 11 19 19 q14 9 25 9 q15 0 33 -13 q15 -15 15 -29 l-32 -57 Z" /><glyph glyph-name="" unicode="Z" d="M653 593 q0 -66 -65 -120 q-107 -87 -262 -216 q-206 -178 -206 -236 q0 -30 40 -45 q31 -11 64 -11 q116 0 161 3 q94 7 156 32 q19 7 29 7 q18 0 40 -18 q23 -18 23 -34 q0 -31 -32 -40 q-10 -3 -78 -6 q-309 -15 -331 -15 q-162 0 -162 91 q0 134 252 344 l176 141 q85 70 85 101 q0 27 -44 45 q-45 18 -117 18 q-114 0 -228 -37 q-27 -9 -39 -9 q-22 0 -37 12 q-16 12 -16 30 q0 32 26 42 q24 9 159 24 q125 12 172 12 q96 0 147 -15 q87 -27 87 -100 Z" /><glyph glyph-name="" unicode="[" d="M285 -165 q0 -3 -3 -15 q-3 -10 -30 -13 l-125 -1 q-44 0 -59 64 q-8 32 -8 112 q0 105 2 277 l3 265 q0 67 7 187 l-3 48 q0 18 28 18 q32 0 48 -13 q33 5 69 5 q37 0 52 -9 q8 -6 8 -18 q0 -22 -24 -28 l-54 -7 l-50 -11 q-12 -138 -12 -513 q0 -188 21 -281 q9 -44 49 -44 q25 0 52 5 q29 -8 29 -28 Z" /><glyph glyph-name="" unicode="\" d="M498 -106 q0 -18 -22 -18 q-11 0 -24 8 q-32 22 -102 146 q-59 104 -185 361 q-45 80 -123 243 q-17 38 -17 57 q0 37 34 37 q39 0 63 -35 q10 -15 54 -116 q85 -200 107 -245 q63 -146 112 -243 q5 -10 63 -114 q40 -74 40 -81 Z" /><glyph glyph-name="" unicode="]" d="M269 -18 q0 -74 -8 -112 q-15 -64 -59 -64 l-125 1 q-27 3 -30 13 q-3 12 -3 15 q0 21 29 28 q27 -5 52 -5 q38 0 49 44 q21 93 21 281 q0 375 -12 513 l-50 11 q-12 0 -54 7 q-24 6 -24 28 q0 13 8 18 q15 9 52 9 q36 0 69 -5 q16 13 48 13 q28 0 28 -18 l-3 -48 q7 -150 7 -187 q0 -93 2 -265 l3 -277 Z" /><glyph glyph-name="" unicode="^" d="M450 446 q0 -8 -8 -14 q-8 -7 -17 -7 q-24 0 -48 31 q-5 5 -35 52 q-29 42 -53 72 q-41 51 -59 62 q-32 -49 -81 -130 q-44 -77 -82 -77 q-21 0 -27 12 q10 28 80 146 q69 118 85 130 q17 10 27 10 q35 0 129 -127 q89 -124 89 -160 Z" /><glyph glyph-name="" unicode="_" d="M500 -205 l-500 0 l0 60 l500 0 l0 -60 Z" /><glyph glyph-name="" unicode="`" d="M254 504 q0 -15 -21 -15 q-22 0 -82 39 q-52 33 -80 61 q-11 10 -11 23 q0 15 12 27 q13 11 30 11 q19 0 86 -61 q66 -63 66 -85 Z" /><glyph glyph-name="" unicode="a" d="M488 -87 q0 -62 -39 -62 q-24 0 -35 12 q-10 13 -10 77 q-70 -55 -172 -55 q-72 0 -128 31 q-64 37 -64 102 q0 93 136 144 q98 35 234 44 q-3 58 -35 104 q-36 50 -91 50 q-70 0 -125 -61 l-32 -36 q-14 -14 -30 -14 q-15 0 -25 14 q-10 11 -10 30 q0 40 77 90 q71 46 153 46 q85 0 141 -77 q51 -72 51 -166 q0 -76 2 -136 l2 -137 ZM409 147 q-107 -3 -175 -23 q-112 -33 -112 -101 q0 -37 41 -63 q37 -23 73 -23 q48 0 96 24 q46 23 74 65 l3 121 Z" /><glyph glyph-name="" unicode="b" d="M476 180 q0 -111 -41 -195 q-50 -100 -138 -100 q-103 0 -153 64 q4 -30 4 -35 q0 -55 -37 -55 q-42 0 -45 67 q-5 83 -5 201 q0 99 5 333 q-4 105 -10 215 q-6 15 -6 25 q0 8 26 27 q25 19 33 19 q15 0 34 -8 q11 -6 12 -12 q0 -10 -5 -43 q-6 -31 -6 -48 q-3 -69 -6 -275 q27 36 68 59 q37 20 68 20 q95 0 149 -68 q53 -70 53 -191 ZM393 187 q0 181 -105 181 q-77 0 -116 -86 q-30 -64 -30 -147 q0 -94 41 -142 q34 -43 83 -43 q127 0 127 237 Z" /><glyph glyph-name="" unicode="c" d="M463 12 q0 -19 -52 -74 q-59 -59 -158 -59 q-94 0 -152 53 q-61 57 -61 158 q0 129 62 235 q66 116 160 116 q93 0 161 -68 q33 -33 33 -58 q0 -16 -10 -29 q-12 -12 -23 -12 q-22 0 -46 33 q-50 65 -101 65 q-68 0 -112 -105 q-37 -87 -37 -178 q0 -154 122 -154 q46 0 87 29 q37 27 55 67 q14 29 31 29 q16 0 28 -15 q13 -19 13 -33 Z" /><glyph glyph-name="" unicode="d" d="M475 683 q0 -7 -5 -40 q-7 -40 -7 -54 q-16 -221 -16 -569 q0 -82 8 -117 q3 -13 3 -19 q0 -7 -13 -17 q-16 -7 -27 -7 q-32 0 -43 25 q-9 21 -9 79 q-21 -39 -56 -61 q-37 -23 -73 -23 q-97 0 -148 63 q-49 59 -49 160 q0 115 46 214 q54 122 148 122 q44 0 77 -14 q32 -14 62 -49 q0 112 2 172 q3 143 13 160 q8 15 24 15 q19 0 44 -17 q19 -16 19 -23 ZM368 198 q0 62 -20 105 q-29 58 -88 58 q-72 0 -111 -101 q-30 -78 -30 -163 q0 -62 21 -104 q29 -56 89 -56 q78 0 114 97 q25 70 25 164 Z" /><glyph glyph-name="" unicode="e" d="M482 -22 q0 -42 -74 -75 q-73 -31 -146 -31 q-108 0 -169 73 q-53 63 -53 162 q0 119 63 224 q63 105 133 105 q89 0 155 -39 q91 -55 91 -143 q0 -66 -68 -117 q-66 -50 -157 -50 q-80 0 -133 43 q-1 -9 -1 -26 q0 -81 43 -128 q43 -49 112 -49 q67 0 151 66 q12 9 26 9 q10 0 19 -9 q8 -8 8 -15 ZM413 250 q0 55 -47 90 q-41 29 -99 29 q-45 0 -82 -46 q-37 -45 -51 -109 q21 -69 123 -69 q56 0 103 28 q53 30 53 77 Z" /><glyph glyph-name="" unicode="f" d="M410 604 q0 -13 -15 -25 q-15 -12 -31 -12 q-8 0 -20 13 q-15 67 -59 67 q-29 0 -53 -84 q-26 -87 -26 -210 l76 2 q55 0 55 -41 q0 -19 -12 -31 q-24 -12 -69 -12 l-51 -1 q0 -53 2 -125 l2 -119 q0 -75 11 -136 q-3 -8 -18 -17 q-16 -9 -29 -9 q-49 0 -49 100 q0 117 5 301 q-26 -2 -65 -2 q-19 0 -31 12 q-13 10 -13 29 q0 35 25 41 l86 5 l1 46 q3 119 28 194 q44 134 130 134 q45 0 82 -31 q38 -36 38 -89 Z" /><glyph glyph-name="" unicode="g" d="M473 414 q-16 -113 -16 -154 l-5 -215 q-4 -184 -4 -226 q0 -206 -190 -206 q-110 0 -173 30 q-42 21 -42 47 q0 41 28 41 q15 0 40 -13 q77 -40 127 -40 q138 0 138 167 l0 130 q-63 -101 -166 -101 q-85 0 -130 62 q-40 55 -40 142 q0 148 60 259 q59 110 142 110 q86 0 137 -66 q9 45 22 55 q6 6 33 6 q12 0 25 -9 q13 -11 14 -19 ZM377 196 q0 74 -29 123 q-28 48 -78 48 q-58 0 -98 -76 q-44 -81 -44 -216 q0 -141 99 -141 q64 0 109 84 q41 77 41 178 Z" /><glyph glyph-name="" unicode="h" d="M477 -56 q0 -26 -13 -46 q-19 -16 -42 -16 q-11 0 -27 16 q-16 16 -16 24 q0 9 11 25 q7 35 7 145 q0 148 -19 208 q-21 63 -78 63 q-59 0 -109 -78 q-54 -84 -54 -193 l1 -72 q0 -27 9 -69 q0 -19 -9 -40 q-7 -24 -37 -24 q-17 0 -30 22 q-12 21 -12 47 l-1 75 q-2 46 -2 99 q0 39 3 174 l4 193 q0 44 -6 131 q0 -9 -4 35 q-3 27 -3 41 q0 42 35 42 q19 0 34 -9 q24 -15 24 -27 l-6 -401 q21 40 63 73 q46 35 88 35 q58 0 96 -22 q52 -33 73 -87 q14 -37 19 -114 l1 -33 l0 -217 Z" /><glyph glyph-name="" unicode="i" d="M204 558 q0 -56 -55 -56 q-31 0 -55 21 q-24 21 -24 50 q0 24 17 40 q17 17 41 17 q31 0 54 -20 q22 -22 22 -52 ZM177 375 q0 -15 -5 -48 q-6 -34 -6 -49 q-3 -84 -3 -122 l0 -139 q2 -47 10 -68 q-2 -26 -13 -43 q-12 -18 -30 -18 q-16 0 -34 23 q-17 23 -17 44 q0 76 1 188 l1 182 q0 56 7 74 q6 15 31 15 q15 0 38 -13 q20 -15 20 -26 Z" /><glyph glyph-name="" unicode="j" d="M243 560 q0 -25 -15 -39 q-14 -14 -38 -14 q-31 0 -52 20 q-24 20 -24 49 q0 24 16 39 q16 14 40 14 q30 0 52 -19 q21 -19 21 -50 ZM230 378 q-2 -12 -9 -68 q-6 -42 -6 -66 l6 -368 q0 -148 -63 -208 q-48 -45 -116 -45 q-29 0 -94 17 l-66 21 q-46 15 -46 50 q0 32 31 32 q17 0 72 -27 q49 -23 94 -23 q109 0 109 208 l-1 59 q-2 72 -3 151 q-5 166 -5 215 q0 67 9 80 q7 10 29 10 q14 0 33 -12 q16 -11 17 -11 q9 -7 9 -15 Z" /><glyph glyph-name="" unicode="k" d="M513 -90 q-19 -48 -54 -48 q-29 0 -94 71 q-61 70 -191 209 l-39 -42 l-1 -95 q0 -40 11 -65 l4 -10 q5 -13 5 -20 q0 -9 -11 -17 q-16 -8 -25 -8 q-62 0 -62 73 q0 42 5 132 l5 120 l0 333 q0 28 -3 61 q-5 24 -7 47 q-6 15 -6 26 q0 12 24 30 q28 20 42 20 q14 0 33 -8 q14 -9 14 -16 q0 -9 -8 -43 q-9 -33 -9 -47 q-3 -51 -3 -98 q0 -53 -3 -152 q-4 -88 -4 -156 q52 52 154 151 q90 81 118 98 q50 0 50 -65 l0 -1 q-72 -43 -135 -99 q-51 -46 -96 -92 q66 -88 154 -180 q71 -77 132 -109 Z" /><glyph glyph-name="" unicode="l" d="M183 -76 q0 -16 -13 -29 q-12 -12 -30 -12 q-28 0 -46 44 q-22 51 -22 154 q0 95 2 270 l2 278 q0 9 -3 36 q-3 30 -3 45 q33 22 53 22 q22 0 41 -15 q19 -16 19 -36 q0 -10 -6 -30 l-10 -33 q-16 -52 -16 -195 l0 -228 q0 -142 30 -259 q2 -8 2 -12 Z" /><glyph glyph-name="" unicode="m" d="M664 -69 q0 -63 -56 -63 q-9 0 -26 17 q-16 17 -16 27 q0 5 12 21 q6 17 6 82 q0 95 -7 182 q-7 70 -24 118 q-19 51 -44 51 q-45 0 -78 -96 q-27 -79 -27 -137 l1 -108 q0 -23 1 -41 l2 -41 q0 -16 -16 -32 q-16 -13 -31 -13 q-32 0 -35 74 q-3 66 -6 163 q-2 49 -7 112 q-14 103 -50 103 q-44 0 -80 -72 q-31 -62 -31 -112 l-1 -155 q0 -84 -10 -102 q-18 -27 -42 -27 q-11 0 -25 7 q-14 9 -14 16 q11 86 11 139 l0 116 l-5 243 q0 43 39 43 q42 0 42 -58 l0 -94 q50 114 113 114 q87 0 123 -124 q42 148 120 148 q42 0 84 -45 q77 -83 77 -292 l0 -164 Z" /><glyph glyph-name="" unicode="n" d="M491 -65 q0 -63 -55 -63 q-30 0 -30 56 q0 11 2 19 l2 18 l1 104 q0 98 -11 170 q-23 137 -88 137 q-75 0 -135 -145 q-29 -70 -29 -131 l-1 -67 q-1 -31 -1 -68 q0 -52 -16 -70 q-16 -16 -29 -16 q-40 0 -40 34 q0 12 1 24 l3 33 l2 80 l0 135 l-2 146 q0 11 -3 35 q-2 16 -2 36 q0 12 16 24 q16 11 33 11 q39 0 39 -45 l-7 -128 q54 169 175 169 q34 0 71 -23 q74 -48 95 -148 q10 -55 10 -182 l-1 -145 Z" /><glyph glyph-name="" unicode="o" d="M513 168 q0 -124 -70 -211 q-72 -89 -179 -89 q-97 0 -160 75 q-64 76 -64 198 q0 126 64 218 q65 91 157 91 q116 0 185 -77 q67 -78 67 -205 ZM444 184 q0 93 -50 148 q-44 46 -109 46 q-68 0 -116 -71 q-49 -71 -49 -170 q0 -90 37 -140 q39 -57 111 -57 q73 0 124 69 q52 70 52 175 Z" /><glyph glyph-name="" unicode="p" d="M517 216 q0 -131 -54 -221 q-65 -106 -178 -106 q-75 0 -151 64 q0 -175 2 -199 q0 -7 3 -31 q0 -14 6 -38 q-2 -68 -43 -68 q-13 0 -25 20 q-11 16 -14 31 q-2 6 -2 18 q0 198 1 270 l3 293 q0 82 -12 139 q-3 14 -3 26 q0 32 51 32 q15 0 30 -23 q9 -15 9 -101 q81 113 180 113 q90 0 145 -63 q52 -63 52 -156 ZM432 228 q0 53 -16 95 q-23 53 -70 53 q-59 0 -122 -60 q-62 -56 -76 -114 q-7 -27 -7 -97 l0 -41 q0 -52 54 -88 q49 -32 96 -32 q78 0 116 109 q25 78 25 175 Z" /><glyph glyph-name="" unicode="q" d="M505 -364 q0 -4 -12 -15 l-5 -4 q-16 -7 -23 -7 q-31 0 -43 17 q-14 17 -14 55 l-2 112 q-2 69 -2 188 q-57 -90 -172 -90 q-182 0 -182 216 q0 111 61 212 q68 115 164 115 q67 0 129 -53 q6 39 20 52 q10 8 39 8 q12 0 25 -11 q11 -10 13 -21 l-9 -33 q-8 -36 -11 -96 q-3 -54 -3 -252 q0 -169 8 -305 q0 -23 9 -46 q10 -32 10 -42 ZM402 217 q0 50 -23 93 q-31 55 -89 55 q-78 0 -120 -94 q-36 -78 -36 -174 q0 -68 30 -104 q29 -37 78 -37 q160 0 160 261 Z" /><glyph glyph-name="" unicode="r" d="M427 406 q0 -12 -10 -25 q-10 -14 -18 -14 q-15 0 -21 3 q-13 5 -18 5 q-34 0 -73 -37 q-31 -30 -49 -65 q-79 -155 -79 -192 q0 -31 7 -79 q6 -51 6 -79 q0 -44 -44 -44 q-26 0 -39 22 q-14 24 -15 82 q-4 129 -4 189 l0 71 q0 109 6 148 q6 38 43 38 q15 0 28 -13 q12 -13 12 -34 q0 -49 -9 -166 q35 106 100 175 q57 62 108 62 q23 0 46 -14 q23 -15 23 -33 Z" /><glyph glyph-name="" unicode="s" d="M454 6 q0 -66 -72 -104 q-58 -29 -133 -29 q-46 0 -106 22 q-68 24 -92 62 q-11 15 -11 31 q0 33 32 33 q37 0 65 -42 q9 -15 47 -32 q37 -17 69 -17 q38 0 75 16 q40 20 40 48 q0 33 -55 70 q-24 12 -80 44 l-57 33 q-100 61 -100 143 q0 64 37 105 q49 55 151 55 q69 0 132 -48 q52 -41 52 -71 q0 -13 -10 -25 q-10 -11 -25 -11 q-24 4 -61 47 q-36 42 -93 42 q-46 0 -75 -29 q-25 -24 -25 -51 q0 -39 22 -62 q17 -20 64 -45 q97 -55 145 -87 q64 -43 64 -98 Z" /><glyph glyph-name="" unicode="t" d="M378 -42 q0 -31 -36 -55 q-37 -24 -76 -24 q-124 0 -124 199 l3 221 q-78 -9 -86 -9 q-18 0 -28 19 q-11 17 -11 45 q0 18 28 19 q23 0 98 6 l5 190 q0 11 4 16 q8 11 36 11 q13 0 39 -16 q24 -16 24 -26 l-4 -42 q-4 -22 -14 -132 q86 0 104 -3 q32 -6 32 -18 q0 -19 -45 -34 q-25 -8 -95 -16 q-7 -162 -7 -247 q0 -135 65 -135 q20 0 34 14 q7 9 10 17 q7 22 24 22 q20 0 20 -22 Z" /><glyph glyph-name="" unicode="u" d="M470 -99 q0 -17 -12 -29 q-13 -11 -31 -11 q-48 0 -66 100 q-24 -39 -64 -60 q-35 -16 -65 -16 q-97 0 -140 64 q-39 59 -39 181 q0 32 2 85 l2 102 q0 24 -7 83 q34 26 54 26 q15 0 31 -13 q14 -14 14 -27 q0 -9 -5 -51 q-7 -53 -7 -81 l-2 -150 q0 -70 26 -113 q29 -48 75 -48 q57 0 95 67 q30 54 33 125 l1 201 q0 59 10 73 q7 10 24 10 q16 0 35 -12 q23 -14 26 -31 l-6 -44 q-4 -31 -8 -74 q-5 -45 -5 -125 q0 -146 21 -208 q2 -8 8 -24 Z" /><glyph glyph-name="" unicode="v" d="M437 377 q0 -45 -15 -132 q-15 -87 -33 -147 q-12 -40 -48 -134 q-38 -79 -78 -79 q-87 0 -156 181 q-48 119 -72 265 q-5 25 -5 50 q0 14 12 26 q12 12 28 12 q19 0 50 -29 q2 -138 49 -276 q45 -136 85 -136 q34 0 65 124 q32 131 32 286 q0 14 13 26 q14 11 32 11 q41 0 41 -48 Z" /><glyph glyph-name="" unicode="w" d="M651 285 q0 -114 -40 -239 q-51 -157 -131 -157 q-70 0 -144 140 q-51 -146 -122 -146 q-89 0 -137 131 q-37 99 -37 223 q0 81 2 99 q6 80 28 80 q15 0 44 -17 q16 -10 18 -26 q-17 -61 -17 -104 q0 -308 90 -308 q46 0 79 88 q27 74 27 151 l-2 21 q-2 10 -2 24 q0 12 1 15 q8 30 41 30 q13 0 25 -9 q12 -10 12 -24 l-1 -118 q0 -71 23 -121 q24 -57 58 -57 q61 0 91 137 q20 95 20 168 q0 63 -10 83 q-16 28 -16 37 q0 15 15 28 q16 13 34 13 q51 0 51 -142 Z" /><glyph glyph-name="" unicode="x" d="M507 -56 q-21 -47 -56 -47 q-58 0 -107 67 l-103 141 q-78 -115 -145 -260 q-66 20 -66 63 q0 27 85 143 l82 116 q-81 109 -127 165 q-25 29 -25 58 q0 12 14 23 q14 12 29 12 q32 0 65 -51 q60 -94 92 -141 q74 98 113 139 q59 64 71 64 q15 0 31 -14 q15 -15 15 -31 q0 -4 -21 -30 q-21 -27 -50 -56 q-64 -66 -116 -134 q45 -63 88 -116 q72 -90 131 -111 Z" /><glyph glyph-name="" unicode="y" d="M495 424 q0 -6 -6 -56 q-18 -151 -18 -519 q0 -111 -41 -167 q-47 -62 -149 -62 q-125 0 -152 18 q-33 23 -33 50 q0 29 38 35 q71 -31 139 -31 q128 0 128 148 q0 56 5 146 l4 148 q-40 -131 -86 -183 q-48 -54 -120 -54 q-151 0 -151 238 q0 50 1 91 l1 91 q0 14 -3 44 q-2 19 -2 44 q0 8 23 14 q18 5 30 5 q14 0 29 -13 q14 -12 14 -27 q0 -10 -5 -45 q-6 -37 -6 -51 q-5 -54 -5 -172 q0 -56 17 -93 q23 -52 69 -52 q69 0 127 142 q42 101 57 201 q3 35 12 106 q6 33 39 33 q12 0 29 -10 q15 -9 15 -19 Z" /><glyph glyph-name="" unicode="z" d="M461 -75 q0 -35 -49 -35 q-10 0 -30 3 q-14 2 -32 2 q-42 0 -112 -7 q-91 -7 -112 -7 q-34 0 -59 20 q-25 19 -25 51 q0 60 153 223 q36 38 107 109 q53 53 53 63 q0 22 -22 22 q-86 0 -203 -48 q-32 -13 -52 -13 q-16 0 -26 13 q-12 12 -12 31 q0 31 28 40 q147 43 292 43 q27 0 57 -24 q29 -26 29 -52 q0 -40 -78 -115 q-83 -78 -162 -167 q-76 -85 -76 -109 q0 -15 18 -18 l24 -1 q85 0 173 17 q32 7 41 7 q75 0 75 -48 Z" /><glyph glyph-name="" unicode="{" d="M369 -159 q0 -10 -7 -22 q-10 -10 -16 -10 q-3 0 -30 6 q-66 16 -83 23 q-43 18 -61 55 q-20 37 -25 158 q-2 49 -5 77 q-6 41 -25 72 q-28 38 -73 56 q-37 13 -37 34 q0 18 39 43 q35 22 40 27 q20 14 31 35 q20 38 25 112 q6 103 9 115 q10 63 49 97 q60 54 130 54 q13 0 23 -9 q10 -10 10 -20 q0 -31 -33 -37 q-60 -12 -75 -22 q-29 -20 -29 -75 q0 -19 3 -55 q3 -37 3 -56 q0 -144 -121 -201 q79 -42 105 -97 q15 -36 15 -109 q0 -20 -3 -56 q-2 -25 -2 -55 q0 -67 34 -88 q7 -5 93 -23 q16 -3 16 -29 Z" /><glyph glyph-name="" unicode="|" d="M193 662 q0 -23 -5 -76 q-7 -63 -7 -77 l-5 -162 q0 -99 7 -305 q0 -15 2 -27 l2 -31 q0 -89 -43 -89 q-35 0 -35 56 q0 22 1 39 l1 39 l0 316 q0 36 -4 192 l-4 71 q-3 38 -3 48 q0 26 12 47 q12 20 34 20 q47 0 47 -61 Z" /><glyph glyph-name="" unicode="}" d="M370 290 q0 -20 -37 -34 q-50 -18 -74 -56 q-19 -28 -25 -72 q-1 -5 -4 -77 q-6 -121 -24 -157 q-21 -39 -71 -59 q-5 -2 -91 -24 l-14 -2 q-8 0 -16 10 q-7 10 -7 22 q0 26 16 29 q43 7 93 23 q35 21 35 88 q0 18 -3 55 q-3 36 -3 56 q0 73 15 109 q25 55 105 97 q-121 57 -121 201 q0 19 3 56 q3 36 3 55 q0 54 -29 75 q-17 10 -75 22 q-32 6 -32 37 q0 11 10 20 q9 9 22 9 q70 0 130 -54 q49 -44 55 -148 q1 -35 3 -66 l1 -24 q6 -50 24 -86 q12 -26 71 -62 q40 -26 40 -43 Z" /><glyph glyph-name="" unicode="~" d="M312 333 q-44 -62 -95 -62 q-29 0 -59 29 q-39 34 -53 34 q-13 0 -22 -12 l-15 -21 q-5 -9 -10 -14 q-7 -6 -13 -6 q-32 0 -32 47 q0 5 7 19 q9 6 20 17 q39 39 75 39 q21 0 55 -32 q31 -31 55 -31 q20 0 44 39 q17 6 27 6 q5 0 14 -9 q10 -10 10 -20 q0 -13 -8 -23 Z" /></font>
</defs>
</svg>
