<svg class="icon" viewBox="0 0 1024 1024" xmlns="http://www.w3.org/2000/svg" width="200" height="200"><path d="M805.188 338.807a167.253 167.253 0 00-236.527 0l-50.688 50.688-50.688-50.688a167.253 167.253 0 10-236.527 236.527l168.96 168.96a167.253 167.253 0 00236.527 0l168.96-168.96a167.253 167.253 0 000-236.527z" fill="#996E28"/><path d="M131.787 440.01L349.01 222.787 735.185 608.96 517.962 826.185 131.787 440.01z" fill="#FF4743"/><path d="M686.925 222.775L904.15 440 517.974 826.173 300.751 608.95l386.174-386.175z" fill="#D5382E"/><path d="M686.916 286.413A153.122 153.122 0 01795.53 331.4a153.6 153.6 0 010 217.224l-168.96 168.96a153.6 153.6 0 01-217.225 0l-168.96-168.96a153.6 153.6 0 010-217.224 153.6 153.6 0 01217.225 0l60.347 60.347 60.348-60.347a153.122 153.122 0 01108.612-44.988m0-13.654a166.161 166.161 0 00-118.272 48.982l-50.688 50.688-50.688-50.688a167.253 167.253 0 00-236.51 236.527l168.96 168.96a167.253 167.253 0 00236.527 0l168.96-168.96a167.253 167.253 0 00-118.272-285.526z" fill="#E8D4AB"/><path d="M290.918 506.18a46.95 46.95 0 00-61.815 24.218l-8.363 19.149a5.205 5.205 0 01-6.826 2.696l-19.132-8.362a46.95 46.95 0 00-61.816 24.217 46.95 46.95 0 0024.218 61.816l62.123 27.153 4.778 2.099a46.95 46.95 0 0061.816-24.286l2.099-4.779 27.153-62.156a46.95 46.95 0 00-24.235-61.765z" fill="#D5382E"/><path d="M272.145 502.238a46.78 46.78 0 0118.773 3.942 46.95 46.95 0 0124.218 61.816l-27.153 62.157-2.1 4.778a46.916 46.916 0 01-61.815 24.218l-4.761-2.082-62.157-27.17a46.95 46.95 0 01-24.218-61.816 46.916 46.916 0 0161.816-24.218l19.131 8.363a5.205 5.205 0 006.827-2.696l8.363-19.132a46.95 46.95 0 0143.042-28.16m0-13.653a60.62 60.62 0 00-55.518 36.266v.086l-4.966 11.383-11.316-4.95a60.211 60.211 0 00-24.234-5.12 60.604 60.604 0 00-24.286 116.156l62.157 27.153 4.778 2.083a60.57 60.57 0 0079.787-31.267l2.1-4.778 27.067-62.157a60.638 60.638 0 00-55.518-84.873z" fill="#E8D4AB"/><path d="M883.149 659.268a45.466 45.466 0 00-61.782-17.834l-17.698 9.762a5.12 5.12 0 01-6.826-1.98l-9.797-17.75a45.466 45.466 0 00-61.713-17.783 45.466 45.466 0 00-17.834 61.782l31.744 57.497 2.44 4.42a45.466 45.466 0 0061.782 17.835l4.42-2.44 57.395-31.744a45.466 45.466 0 0017.869-61.765z" fill="#D5382E"/><path d="M747.196 608.017a45.449 45.449 0 0139.833 23.45l9.762 17.698a5.12 5.12 0 006.827 1.98l17.698-9.763a45.431 45.431 0 0161.782 17.835 45.466 45.466 0 01-17.818 61.816l-57.498 31.744-4.42 2.44a45.449 45.449 0 01-61.781-17.835l-2.44-4.42-31.745-57.497a45.466 45.466 0 0117.937-61.765 45.26 45.26 0 0121.931-5.666m0-13.653a59.204 59.204 0 00-28.535 7.373 59.119 59.119 0 00-23.126 80.213l31.744 57.498 2.44 4.42a59.102 59.102 0 0080.334 23.176l4.42-2.44 57.497-31.744a59.119 59.119 0 0023.211-80.214 59.085 59.085 0 00-80.213-23.227l-10.24 5.615-5.581-10.12a59.17 59.17 0 00-51.797-30.55z" fill="#E8D4AB"/></svg>