<svg class="icon" viewBox="0 0 1051 1024" xmlns="http://www.w3.org/2000/svg" width="205.273" height="200"><path d="M247.85999999999996 540.485a318.292 318.292 0 10636.583 0 318.292 318.292 0 10-636.583 0z" fill="#F5C752"/><path d="M516.127 105.814a50.024 50.024 0 10100.048 0 50.024 50.024 0 10-100.048 0z" fill="#F5C752"/><path d="M516.127 973.976a50.024 50.024 0 10100.048 0 50.024 50.024 0 10-100.048 0z" fill="#F5C752"/><path d="M81.27799999999999 506.577a50.024 50.024 0 10100.048 0 50.024 50.024 0 10-100.048 0z" fill="#F5C752"/><path d="M951.663 508.8a50.024 50.024 0 10100.048 0 50.024 50.024 0 10-100.048 0z" fill="#F5C752"/><path d="M219.666 239.656a50.024 50.024 0 10100.048 0 50.024 50.024 0 10-100.048 0z" fill="#F5C752"/><path d="M835.13 855.12a50.024 50.024 0 10100.048 0 50.024 50.024 0 10-100.048 0z" fill="#F5C752"/><path d="M197.137 829.886a50.024 50.024 0 10100.048 0 50.024 50.024 0 10-100.048 0z" fill="#F5C752"/><path d="M812.589 216.644a50.024 50.024 0 10100.048 0 50.024 50.024 0 10-100.048 0z" fill="#F5C752"/><path d="M485.039 811.979a327.105 327.105 0 11231.311-95.806 324.985 324.985 0 01-231.311 95.806zm0-603.438c-152.396 0-276.32 123.962-276.32 276.32s124.012 276.32 276.32 276.32 276.32-123.962 276.32-276.32-123.962-276.32-276.32-276.32z" fill="#333"/><path d="M485.039 145.64a72.82 72.82 0 1172.82-72.82 72.896 72.896 0 01-72.82 72.82zm0-94.841a22.021 22.021 0 1022.02 22.02 22.047 22.047 0 00-22.02-22.02zm0 917.818a72.82 72.82 0 1172.82-72.82 72.896 72.896 0 01-72.82 72.82zm0-94.841a22.021 22.021 0 1022.02 22.02 22.047 22.047 0 00-22.02-22.059zM72.819 525.538a72.82 72.82 0 1172.82-72.82 72.896 72.896 0 01-72.82 72.82zm0-94.841a22.021 22.021 0 1022.022 22.02 22.047 22.047 0 00-22.021-22.02zm825.048 96.949a72.82 72.82 0 1172.82-72.82 72.896 72.896 0 01-72.82 72.82zm0-94.841a22.021 22.021 0 1022.021 22.021 22.047 22.047 0 00-22.021-22.021zm-693.86-160.283a72.82 72.82 0 1172.846-72.82 72.896 72.896 0 01-72.845 72.82zm0-94.84a22.021 22.021 0 1022.047 22.02 22.047 22.047 0 00-22.046-22.02zM787.38 855.957a72.82 72.82 0 1172.82-72.82 72.896 72.896 0 01-72.82 72.82zm0-94.841a22.021 22.021 0 1022.02 22.021 22.047 22.047 0 00-22.02-22.034zm-604.733 70.902a72.82 72.82 0 1172.82-72.82 72.896 72.896 0 01-72.82 72.82zm0-94.841a22.021 22.021 0 1022.02 22.021 22.047 22.047 0 00-22.02-22.021zM766.07 250.704a72.82 72.82 0 1172.82-72.82 72.896 72.896 0 01-72.82 72.82zm0-94.84a22.021 22.021 0 1022.02 22.02 22.047 22.047 0 00-22.02-22.02z" fill="#333"/></svg>